<svg width="540" height="411" viewBox="0 0 540 411" fill="none" xmlns="http://www.w3.org/2000/svg">
<path d="M42.503 110.163C47.4037 127.507 56.8989 144.698 67.4661 161.428C55.0611 168.489 42.6561 175.702 30.4044 182.763C27.3414 175.702 24.7379 169.409 22.4407 164.191C17.6931 152.833 13.8644 141.014 10.9546 129.042C5.59448 105.558 -0.83773 74.4001 1.45948 66.5722C2.37836 63.349 8.3511 79.3118 8.81054 81.0001C6.51333 73.4792 3.45039 54.1397 5.90075 53.2187C8.35111 52.2978 15.8553 75.1676 15.8553 75.1676C15.8553 75.1676 13.5582 67.4931 12.4861 55.9815C11.7204 48.1536 13.2519 48.3071 13.2519 48.3071C18.3057 48.6141 23.6659 73.6327 23.6659 73.6327C23.6659 73.6327 23.3596 52.1443 25.1973 52.7583C30.0981 54.2931 32.089 86.0652 32.089 86.0652C32.089 86.0652 32.089 89.442 37.6023 81.3071C43.1156 73.3257 46.0254 76.549 46.0254 76.549C46.0254 76.549 40.9715 90.2094 39.7464 96.1955C39.8995 96.349 41.2778 105.558 42.503 110.163Z" fill="#313E54"/>
<path d="M27.0352 83.1489C27.0352 83.1489 22.4407 86.9861 19.5309 90.5164C18.3057 92.0513 16.3148 92.5117 14.6302 91.7443C12.6393 90.8233 9.88262 90.2094 6.20708 91.8978" stroke="#F2F0E8" stroke-miterlimit="10" stroke-linecap="round"/>
<path d="M434.408 311.693C432.57 288.056 429.966 264.112 421.849 244.158C418.48 235.716 415.264 228.195 411.895 227.428C406.075 226.2 398.112 225.126 397.346 222.823C396.58 220.214 407.147 220.675 414.805 220.214C414.805 220.214 393.211 219.907 393.058 216.837C392.905 213 417.561 213.154 417.561 213.154C417.561 213.154 391.526 210.851 393.823 206.707C396.121 202.563 420.165 206.861 420.165 206.861C420.165 206.861 398.571 202.409 398.877 198.112C399.184 194.581 416.03 199.033 430.273 204.712C438.696 208.088 445.894 213.921 450.794 221.595C455.389 228.963 460.902 240.168 466.262 257.358C466.262 257.358 471.622 277.312 478.361 304.326C463.659 306.628 449.11 309.237 434.408 311.693Z" fill="#313E54"/>
<path d="M460.136 128.889C460.136 128.889 405.31 215.303 413.12 254.442" stroke="#313E54" stroke-miterlimit="10" stroke-linecap="round"/>
<path d="M434.407 115.228C434.407 115.228 402.246 197.651 412.967 254.595" stroke="#313E54" stroke-miterlimit="10" stroke-linecap="round"/>
<path d="M442.646 116.706C435.977 117.701 429.989 112.567 430.313 105.916C430.26 105.772 430.26 105.772 430.351 105.576C430.697 98.1003 439.085 94.6737 445.497 97.8551C448.9 99.5362 451.145 102.952 451.267 106.825C451.381 108.906 450.776 111.252 449.003 113.54C447.609 115.524 445.018 116.482 442.646 116.706Z" fill="url(#paint0_linear_110_2785)"/>
<path d="M450.979 95.829L447.214 92.8524C467.034 59.9406 496.159 65.9407 505.246 47.9501C516.834 25.0105 498.048 11.1644 485.732 16.7824C473.415 22.4003 485.65 33.8703 477.708 42.6692C469.766 51.4681 449.851 39.4098 465.758 20.4328C479.447 4.1035 511.506 11.521 520.02 30.2299C532.208 57.0149 512.975 71.7464 495.051 75.1724C482.922 77.4909 466.81 82.4117 450.979 95.829Z" fill="url(#paint1_linear_110_2785)"/>
<path d="M227.965 226.507L220.92 169.716L248.18 147.461L273.296 225.126L227.965 226.507Z" fill="#313E54"/>
<path d="M269.314 116.456C269.314 116.456 337.465 161.735 397.346 140.093C413.579 134.261 425.219 118.758 423.993 101.414C423.075 88.5211 414.958 72.8653 392.598 67.1862C385.86 65.4978 378.815 65.1909 371.923 65.9583C353.392 67.8002 311.889 76.549 269.314 116.456Z" fill="white" stroke="#313E54" stroke-miterlimit="10" stroke-linecap="round"/>
<path d="M295.656 129.963C295.656 157.284 259.819 179.386 230.874 179.386C201.93 179.386 187.84 162.349 190.75 135.028C193.813 105.712 214.181 80.3862 243.279 80.3862C272.071 80.3862 295.656 102.642 295.656 129.963Z" fill="#313E54"/>
<path d="M295.656 129.963C295.656 102.642 272.224 80.5397 243.126 80.5397C220.307 80.5397 201.011 97.5769 193.66 117.991C193.966 118.144 209.587 121.982 221.686 107.4C222.145 106.94 222.911 107.247 222.911 107.861C222.605 114.921 223.83 135.642 251.243 137.944C251.243 137.944 250.324 176.316 251.856 175.856C262.882 172.479 270.846 167.107 274.828 164.191C287.08 155.289 295.656 143.316 295.656 129.963Z" fill="white" stroke="#313E54" stroke-miterlimit="10" stroke-linecap="round"/>
<path d="M249.712 162.349C252.928 162.195 256.297 160.661 258.9 158.051C264.261 152.833 264.873 144.698 260.279 140.093C257.216 137.023 253.234 137.023 249.252 139.019" fill="#313E54"/>
<path d="M249.712 162.349C252.928 162.195 256.297 160.661 258.9 158.051C264.261 152.833 264.873 144.698 260.279 140.093C257.216 137.023 253.234 137.023 249.252 139.019" stroke="#F2F0E8" stroke-miterlimit="10" stroke-linecap="round"/>
<path d="M247.261 153.447C247.261 153.447 250.018 147.768 255.072 150.07L247.261 153.447Z" fill="#313E54"/>
<path d="M247.261 153.447C247.261 153.447 250.018 147.768 255.072 150.07" stroke="#F2F0E8" stroke-miterlimit="10" stroke-linecap="round"/>
<path d="M358.6 409.926L334.249 302.944C336.546 313.075 407.147 407.163 442.524 409.926C490.919 413.763 503.171 358.814 472.235 272.093L422.615 278.233L432.723 333.642C399.184 285.754 348.645 221.902 318.475 215.456C306.223 212.847 253.387 215.916 234.856 216.991C186.921 219.907 116.933 224.819 110.194 216.07C90.7445 190.744 56.5927 134.414 56.5927 134.414L18.1526 161.735C18.1526 161.735 48.7821 263.037 84.1592 285.754C97.1767 294.195 167.625 298.493 194.119 300.028L198.56 409.926" stroke="#313E54" stroke-miterlimit="10" stroke-linecap="round"/>
<path d="M271.152 215.302C271.152 215.302 269.315 223.284 251.243 224.972C235.01 226.354 226.893 217.605 226.893 217.605C237.766 208.702 252.775 206.707 265.486 212.693L271.152 215.302Z" fill="#313E54"/>
<path d="M327.817 409.926L296.115 214.535C306.989 214.382 314.34 214.688 318.475 215.609C348.645 222.056 399.184 285.907 432.723 333.795L422.615 278.386L472.235 272.247C503.171 358.814 490.919 413.763 442.524 409.926C407.147 407.163 336.546 313.075 334.249 302.944L358.6 409.926H327.817Z" fill="url(#paint2_linear_110_2785)" stroke="url(#paint3_linear_110_2785)" stroke-miterlimit="10" stroke-linecap="round"/>
<path d="M56.5926 134.414C56.5926 134.414 90.7445 190.744 110.194 216.07C116.014 223.591 160.58 220.982 205.911 218.219L225.667 409.926H198.254L193.813 300.028C167.318 298.493 96.8704 294.195 83.8529 285.754C48.4758 263.037 17.8463 161.735 17.8463 161.735L56.5926 134.414Z" fill="url(#paint4_linear_110_2785)" stroke="url(#paint5_linear_110_2785)" stroke-miterlimit="10" stroke-linecap="round"/>
<defs>
<linearGradient id="paint0_linear_110_2785" x1="426.173" y1="40.8876" x2="500.477" y2="102.012" gradientUnits="userSpaceOnUse">
<stop stop-color="#E75327"/>
<stop offset="0.23" stop-color="#E75327"/>
<stop offset="1" stop-color="#F8B33A"/>
</linearGradient>
<linearGradient id="paint1_linear_110_2785" x1="426.173" y1="40.8876" x2="500.477" y2="102.012" gradientUnits="userSpaceOnUse">
<stop stop-color="#E75327"/>
<stop offset="0.23" stop-color="#E75327"/>
<stop offset="1" stop-color="#F8B33A"/>
</linearGradient>
<linearGradient id="paint2_linear_110_2785" x1="469.886" y1="375.882" x2="309.084" y2="255.643" gradientUnits="userSpaceOnUse">
<stop stop-color="#E75327"/>
<stop offset="0.23" stop-color="#E75327"/>
<stop offset="1" stop-color="#F8B33A"/>
</linearGradient>
<linearGradient id="paint3_linear_110_2785" x1="469.886" y1="375.882" x2="309.084" y2="255.643" gradientUnits="userSpaceOnUse">
<stop stop-color="#E75327"/>
<stop offset="0.23" stop-color="#E75327"/>
<stop offset="1" stop-color="#F8B33A"/>
</linearGradient>
<linearGradient id="paint4_linear_110_2785" x1="204.885" y1="361.711" x2="1.46122" y2="245.465" gradientUnits="userSpaceOnUse">
<stop stop-color="#E75327"/>
<stop offset="0.23" stop-color="#E75327"/>
<stop offset="1" stop-color="#F8B33A"/>
</linearGradient>
<linearGradient id="paint5_linear_110_2785" x1="204.885" y1="361.711" x2="1.46122" y2="245.465" gradientUnits="userSpaceOnUse">
<stop stop-color="#E75327"/>
<stop offset="0.23" stop-color="#E75327"/>
<stop offset="1" stop-color="#F8B33A"/>
</linearGradient>
</defs>
</svg>
