<svg width="1368" height="324" viewBox="0 0 1368 324" fill="none" xmlns="http://www.w3.org/2000/svg">
<path d="M-19.1523 195.766C14.0298 266.629 111.738 284.757 182.858 253.395C253.977 222.033 302.51 155.755 344.513 89.9396C409.643 -14.0359 248.136 12.9993 296.562 172.646C316.131 238.926 357.019 308.347 423.978 320.243C519.545 338.166 587.784 235.581 652.145 162.093C695.905 111.727 753.538 7.03074 816.701 2.19051C912.518 -4.96682 902.418 133.771 909.489 172.653C916.56 211.535 936.275 253.815 974.419 261.85C1019.96 271.686 1058.7 228.479 1095.03 199.228C1177.08 132.898 1301.92 127.441 1389.35 184.966" stroke="url(#paint0_linear_219_95288)" stroke-width="2" stroke-miterlimit="10" stroke-linecap="round" stroke-linejoin="round"/>
<defs>
<linearGradient id="paint0_linear_219_95288" x1="582.541" y1="467.121" x2="849.511" y2="-141.576" gradientUnits="userSpaceOnUse">
<stop stop-color="#313E54"/>
<stop offset="1" stop-color="#5ED6D5"/>
</linearGradient>
</defs>
</svg>
