<svg width="61" height="118" viewBox="0 0 61 118" fill="none" xmlns="http://www.w3.org/2000/svg">
<path d="M0 58.9982C0 42.5893 0 26.2035 0 9.79463C0 3.8948 4.02538 0 10.1468 0C23.7712 0 37.3717 0 50.9961 0C56.9746 0 60.9762 3.8948 60.9762 9.70244C60.9762 42.3819 60.9762 75.0614 61 107.741C61 111.244 59.9758 114.148 56.9984 116.268C55.4264 117.374 53.6162 117.973 51.663 117.973C37.5385 117.996 23.3901 118.019 9.26552 117.973C4.07302 117.973 0 113.779 0 108.64C0 92.0925 0 75.5454 0 58.9982ZM56.9547 58.9982C56.9547 50.6555 57.1652 42.3128 57.1652 33.9701C57.1652 25.6043 57.1652 17.2385 57.1413 8.84973C57.1413 5.83068 54.9262 3.71043 51.8059 3.71043C50.091 3.68739 48.3998 3.73348 46.6849 3.68739C45.8989 3.66434 45.5654 3.9409 45.4939 4.74751C45.351 6.61425 44.2077 7.65133 42.3499 7.65133C34.442 7.67438 26.558 7.67438 18.6501 7.65133C16.7685 7.65133 15.6013 6.61425 15.4584 4.7936C15.387 3.91785 15.0059 3.68739 14.1722 3.71043C12.6954 3.73348 11.2187 3.80262 9.76572 3.68739C6.21671 3.41083 3.73955 6.0381 3.73955 9.51807C3.85865 42.6124 3.81101 75.7067 3.81101 108.801C3.81101 112.258 5.9547 114.309 9.52753 114.309C23.533 114.309 37.5385 114.309 51.5439 114.309C55.0453 114.309 57.1652 112.258 57.1652 108.847C57.1652 92.2078 56.9547 75.6145 56.9547 58.9982Z" fill="#313E54"/>
</svg>
