<svg width="328" height="111" viewBox="0 0 328 111" fill="none" xmlns="http://www.w3.org/2000/svg">
<path d="M34.5 60C32.5 60 26.5 63 25.5 71C24.5 79 31 88 39.5 89.5C35.5 102 49.5 105 53 97.5C53.5 105 65.5 102.5 64.5 95.5M60.5 68C54.5 64.5 54 59 55 56.5C56 54 60 52 64.5 53.5C63.8333 50.6667 63.4 44.7 67 43.5C71.5 42 78 45 79 47M261 99.5C264.5 99.5 272.7 99.5 277.5 99.5C283.5 99.5 287 93 284 88.5C281.6 84.9 276.667 85 274.5 85.5C276.167 82.5 278.3 75.7 273.5 72.5C267.5 68.5 263.5 75.5 263 78M279.5 58.5C285.5 54 282.5 44.5 277.5 43C273.5 41.8 269.833 43.5 268.5 44.5C269.5 41 270.2 33.6 265 32C259.8 30.4 256.833 35 256 37.5M72.5 110.5C56.5 110.5 35.5 110.5 16 110.5C-3.50001 110.5 -6.50001 71.5 23 71.5C11.5 60 16.3307 34.6672 36.5 31C53 28 58 40 58.5 44.5C58.5 20.5 78 7.00004 94.5 7.00004C111 7.00004 121.5 19 122 28C122.5 37 220.5 37 220 24.5C219.5 12 229.5 5.00004 240 7.00004C248.4 8.60004 251.5 13.6667 252 16C268 -1.5 301 21.5 282.5 46.5C297 44.5 321.6 49.5 326 71.5C328.919 86.0972 318.667 96.3333 314 99.5C322 99.5 324.5 110.5 314 110.5C305.6 110.5 149.5 110.5 72.5 110.5Z" stroke="url(#paint0_linear_109_2781)"/>
<path d="M72 110.949C72.0515 108.447 73.8545 107.988 76.0181 107.732C75.8636 104.567 75.503 101.452 75.503 98.338C75.5545 83.021 75.709 67.704 75.7605 52.4381C75.7605 49.6811 76.7908 47.3325 78.5423 45.2391C79.6756 43.8606 80.6544 42.38 81.3756 41.4099C78.7484 39.1123 75.9666 37.3254 74.0606 34.8747C71.2788 31.3007 72.4636 28.5947 76.7908 27.1651C81.7362 25.5824 86.7846 25.6845 91.833 26.2971C93.636 26.5014 94.8209 25.9398 96.0057 24.6123C102.342 17.6686 108.73 10.9291 115.014 4.03649C117.539 1.22837 120.939 0.870978 124.184 0.819921C143.76 0.411469 163.283 0.156186 182.859 0.00301605C187.804 -0.0480405 192.801 0.564638 197.798 0.666751C204.186 0.768865 209.389 3.06641 213.613 7.86573C218.764 13.6862 223.967 19.4556 229.273 25.1229C229.943 25.8376 231.231 26.3482 232.21 26.2971C237.773 25.9398 243.337 25.3271 248.797 27.1651C253.279 28.6458 254.155 31.1475 251.528 35.0789C249.776 37.7338 248.128 38.8571 242.564 41.2057C242.616 41.4099 242.564 41.7673 242.667 41.8694C246.737 45.8008 247.046 50.9064 247.046 56.0631C247.097 72.0438 247.097 88.0756 247.097 104.056C247.097 105.231 247.097 106.405 247.097 107.783C249.415 108.09 252.197 107.63 252.3 111C192.183 110.949 132.117 110.949 72 110.949ZM102.651 36.2532C142.369 36.2532 181.417 36.2532 220.619 36.2532C220.516 35.7426 220.464 35.3852 220.31 35.0789C216.704 28.7989 213.355 22.3658 209.337 16.3922C203.98 8.42735 206.401 9.49954 196.304 9.49954C171.268 9.44848 146.232 10.0101 121.145 10.4696C119.754 10.4696 117.899 11.4397 117.075 12.5119C114.448 15.9837 112.13 19.6598 109.915 23.3869C107.545 27.4715 105.278 31.607 102.651 36.2532ZM112.336 107.783C145.459 107.783 177.862 107.783 210.574 107.783C209.595 104.72 208.359 101.861 207.74 98.8996C207.225 96.4999 206.092 96.0915 203.877 96.1425C188.886 96.3468 173.844 96.4489 158.853 96.551C145.408 96.6531 131.911 96.7552 118.466 96.9594C117.384 96.9594 115.581 97.5211 115.272 98.2359C114.087 101.248 113.366 104.363 112.336 107.783ZM203.928 64.2832C206.246 64.4875 208.359 64.7427 210.471 64.8959C218.249 65.4575 225.873 65.2023 232.931 61.2198C237.979 58.3607 239.937 51.7744 237.104 46.4645C236.279 46.7708 235.455 47.1793 234.579 47.3835C229.376 48.6599 224.173 50.8043 218.97 50.9064C212.428 51.1106 205.886 56.7269 203.928 64.2832ZM88.3301 46.7198C85.4968 52.0807 87.8149 58.8712 93.5845 61.7815C102.651 66.3255 112.181 65.2533 122.278 64.2322C120.887 61.8325 119.805 59.6881 118.414 57.6459C115.53 53.4592 111.769 50.9575 106.36 51.1106C104.506 51.1617 102.6 50.8043 100.797 50.3448C96.6754 49.2215 92.5027 47.9451 88.3301 46.7198ZM161.429 68.2146C165.293 68.2656 168.229 65.5086 168.332 61.8325C168.435 58.2586 165.138 54.8888 161.583 54.8888C157.874 54.8888 154.938 57.799 154.887 61.5262C154.887 65.4065 157.565 68.1635 161.429 68.2146Z" fill="#313E54"/>
<path d="M93.5845 61.7815C87.8149 58.8712 85.4968 52.0807 88.3301 46.7198C92.5027 47.9451 96.6754 49.2215 100.797 50.3448C102.6 50.8043 104.506 51.1617 106.36 51.1106C111.769 50.9575 115.53 53.4592 118.414 57.6459C119.805 59.6881 120.887 61.8325 122.278 64.2322C112.181 65.2533 102.651 66.3255 93.5845 61.7815Z" fill="white"/>
<path d="M210.574 107.783H112.336C113.366 104.363 114.087 101.248 115.272 98.2359C115.581 97.5211 117.384 96.9594 118.466 96.9594C131.858 96.756 145.302 96.6539 158.695 96.5522L158.853 96.551L159.006 96.55C173.946 96.4482 188.937 96.3461 203.877 96.1425C206.092 96.0915 207.225 96.4999 207.74 98.8996C208.359 101.861 209.595 104.72 210.574 107.783Z" fill="white"/>
<path d="M168.332 61.8325C168.229 65.5086 165.293 68.2656 161.429 68.2146C157.565 68.1635 154.887 65.4065 154.887 61.5262C154.938 57.799 157.874 54.8888 161.583 54.8888C165.138 54.8888 168.435 58.2586 168.332 61.8325Z" fill="white"/>
<path d="M210.471 64.8959C208.359 64.7427 206.246 64.4875 203.928 64.2832C205.886 56.7269 212.428 51.1106 218.97 50.9064C224.173 50.8043 229.376 48.6599 234.579 47.3835C235.455 47.1793 236.279 46.7708 237.104 46.4645C239.937 51.7744 237.979 58.3607 232.931 61.2198C225.873 65.2023 218.249 65.4575 210.471 64.8959Z" fill="white"/>
<path d="M220.619 36.2532H102.651C105.278 31.607 107.545 27.4715 109.915 23.3869C112.13 19.6598 114.448 15.9837 117.075 12.5119C117.899 11.4397 119.754 10.4696 121.145 10.4696C146.232 10.0101 171.268 9.44848 196.304 9.49954C206.401 9.49954 203.98 8.42735 209.337 16.3922C213.355 22.3658 216.704 28.7989 220.31 35.0789C220.464 35.3852 220.516 35.7426 220.619 36.2532Z" fill="white"/>
<defs>
<linearGradient id="paint0_linear_109_2781" x1="33.6363" y1="92.3283" x2="97.3053" y2="-58.8332" gradientUnits="userSpaceOnUse">
<stop stop-color="#E75327"/>
<stop offset="0.23" stop-color="#E75327"/>
<stop offset="1" stop-color="#F8B33A"/>
</linearGradient>
</defs>
</svg>
