<svg width="338" height="119" viewBox="0 0 338 119" fill="none" xmlns="http://www.w3.org/2000/svg">
<path d="M203.592 32.3209C203.592 63.4853 203.592 87.8874 203.592 119C176.083 119 148.523 119 121.014 119C121.014 87.8355 121.014 63.4335 121.014 32.3209C121.117 32.3209 121.221 32.3209 121.272 32.3209C148.626 32.3209 175.928 32.3209 203.282 32.3209C203.385 32.3209 203.488 32.3209 203.592 32.3209ZM189.657 71.9112C189.657 56.7179 177.373 44.3765 162.251 44.3765C147.129 44.3765 134.897 56.7179 134.897 71.963C134.897 87.1563 147.181 99.4458 162.303 99.4458C177.425 99.4458 189.708 87.1045 189.657 71.9112Z" fill="#313E54"/>
<path d="M203.592 6.57992C203.592 11.5061 203.592 16.4322 203.592 21.3584C203.437 21.8769 203.282 22.3955 202.921 22.8622C202.25 23.5881 201.424 23.8993 200.443 23.8993C175.051 23.8993 149.71 23.8993 124.317 23.8993C124.162 23.8993 124.008 23.8993 123.801 23.8993C122.769 23.8474 121.943 23.3807 121.375 22.4992C121.221 22.0844 121.169 21.6695 121.014 21.3065C121.014 16.3804 121.014 11.4542 121.014 6.52807C121.014 6.47621 121.066 6.42436 121.066 6.42436C121.169 5.75025 121.53 5.17986 122.046 4.71317C122.459 4.35019 122.975 4.19463 123.543 4.03906C149.4 4.03906 175.206 4.03906 201.063 4.03906C201.114 4.03906 201.166 4.09092 201.218 4.09092C202.095 4.24648 202.766 4.76502 203.23 5.54284C203.385 5.85396 203.488 6.21694 203.592 6.57992ZM136.085 6.89105C132.988 6.89105 129.891 6.89105 126.795 6.89105C125.453 6.89105 124.524 7.82443 124.524 9.17264C124.524 12.0765 124.524 15.0322 124.524 17.936C124.524 19.3879 125.401 20.2695 126.846 20.2695C133.039 20.2695 139.233 20.2695 145.426 20.2695C146.768 20.2695 147.697 19.3361 147.697 17.9879C147.697 15.084 147.697 12.1283 147.697 9.22449C147.697 7.77257 146.82 6.89105 145.374 6.89105C142.278 6.89105 139.181 6.89105 136.085 6.89105ZM182.457 10.3134C180.496 10.3134 178.896 11.9209 178.845 13.8914C178.845 15.8618 180.445 17.4693 182.457 17.5212C184.419 17.5212 186.07 15.9137 186.07 13.9432C186.019 11.9209 184.419 10.3134 182.457 10.3134ZM193.605 10.106C191.644 10.106 189.993 11.7135 189.993 13.684C189.993 15.6544 191.593 17.3138 193.554 17.3138C195.515 17.3138 197.115 15.7063 197.115 13.7358C197.218 11.7654 195.618 10.106 193.605 10.106Z" fill="#313E54"/>
<path d="M1 91.2219C10.5184 107.091 34.3144 109.313 50.4958 100.426C66.6771 91.5393 93.9632 73.1307 98.0878 38.2178C105.385 -23.0384 48.2748 -8.12105 75.8782 78.8437C80.9547 94.3958 93.3286 109.63 109.827 110.9C132.989 112.804 146.949 87.0958 160.592 68.0525C169.793 55.0395 181.215 29.0135 196.127 26.4744C218.972 22.6657 219.606 55.6743 222.144 64.8786C224.683 74.0829 230.394 83.6045 239.912 84.5567C251.017 85.8263 259.266 74.7176 267.198 66.7829C285.283 49.3265 314.79 44.883 337 56.6264" stroke="url(#paint0_linear_109_2782)" stroke-miterlimit="10" stroke-linecap="round"/>
<defs>
<linearGradient id="paint0_linear_109_2782" x1="34.6" y1="91.75" x2="103.255" y2="-67.1212" gradientUnits="userSpaceOnUse">
<stop stop-color="#E75327"/>
<stop offset="0.23" stop-color="#E75327"/>
<stop offset="1" stop-color="#F8B33A"/>
</linearGradient>
</defs>
</svg>
