<svg width="115" height="115" viewBox="0 0 115 115" fill="none" xmlns="http://www.w3.org/2000/svg">
<path d="M57.3791 115C25.5465 114.956 -0.218441 89.1388 0.00139642 57.2523C0.221234 23.6067 28.2725 -1.02287 59.4016 0.0326802C89.4314 1.00027 115.9 26.1576 114.977 59.3195C114.097 89.9304 88.9478 115.088 57.3791 115ZM84.9467 51.8866C88.7719 51.8866 92.5531 51.9306 96.3783 51.8866C100.907 51.7987 102.885 49.1158 101.61 44.7617C96.0265 25.4099 77.9559 11.5998 58.1265 11.5558C37.2419 11.5118 19.2592 24.8381 13.4555 44.6737C12.1364 49.1158 14.1589 51.8426 18.8195 51.8866C26.294 51.9306 33.7685 51.8866 41.243 51.8866C44.1448 51.8866 46.651 51.007 48.7614 48.8959C53.8616 43.882 61.1603 43.838 66.3045 48.8079C68.5028 50.963 71.053 51.8426 73.9988 51.8426C77.6481 51.8866 81.2974 51.8866 84.9467 51.8866ZM24.1836 62.9699C24.1836 63.1018 24.1396 63.2778 24.1396 63.4097C22.161 63.4097 20.1825 63.3657 18.204 63.4097C14.3788 63.4977 12.2244 66.2685 13.3236 69.9189C18.0721 85.7082 28.3605 96.2198 44.0129 101.41C47.3984 102.509 50.1684 100.882 50.9158 97.3633C52.3228 90.6341 52.5866 83.861 51.3995 77.0879C50.0365 69.4352 46.8268 66.0926 39.1765 64.7731C34.2081 63.8935 29.1519 63.5417 24.1836 62.9699ZM90.9703 63.4097C90.9703 63.3218 90.9703 63.1898 90.9263 63.1019C86.3976 63.5417 81.869 63.8056 77.3843 64.4213C68.8986 65.6088 65.2492 68.7754 63.7543 76.3842C62.3914 83.4212 62.6991 90.5462 64.0621 97.5392C64.7216 100.838 67.6675 102.421 70.9211 101.454C72.328 101.014 73.691 100.574 75.054 100.002C88.4641 94.1526 97.3456 84.2569 101.61 70.2268C102.798 66.3125 100.731 63.5417 96.6421 63.4537C94.7515 63.3657 92.8609 63.4097 90.9703 63.4097ZM57.423 64.4653C60.2369 64.5093 62.4793 62.3542 62.5672 59.5833C62.6552 56.8125 60.2369 54.3496 57.511 54.3496C54.8289 54.3936 52.4987 56.6806 52.4547 59.3634C52.4547 62.0903 54.697 64.4213 57.423 64.4653Z" fill="#313E54"/>
</svg>
