<svg width="1365" height="491" viewBox="0 0 1365 491" fill="none" xmlns="http://www.w3.org/2000/svg">
<path d="M1380.99 448.935C1328.17 507.601 1226.65 497.481 1166.09 447.07C1105.54 396.66 1006.22 297.324 1017.41 147.8C1036.78 -114.596 1263.92 -5.53487 1077.34 336.002C1043.39 396.965 979.116 450.644 908.951 442.493C810.35 431.561 772.819 312.542 731.183 221.685C703.241 159.698 676.604 41.4216 616.192 18.6211C523.579 -15.9682 494.003 121.699 475.862 158.16C457.721 194.621 426.027 229.821 385.368 226.039C337.802 222.29 312.296 169.052 285.531 129.361C223.988 41.5215 103.975 -1.16315 1.33879 29.8721" stroke="url(#paint0_linear_146_2166)" stroke-width="2" stroke-miterlimit="10" stroke-linecap="round"/>
<defs>
<linearGradient id="paint0_linear_146_2166" x1="704.005" y1="578.263" x2="528.861" y2="-252.657" gradientUnits="userSpaceOnUse">
<stop stop-color="#313E54"/>
<stop offset="1" stop-color="#5ED6D5"/>
</linearGradient>
</defs>
</svg>
