<svg width="1368" height="452" viewBox="0 0 1368 452" fill="none" xmlns="http://www.w3.org/2000/svg">
<path d="M1 370.09C39.9802 435.01 137.431 444.099 203.697 407.743C269.963 371.388 381.706 296.08 398.598 153.255C428.483 -97.3387 194.602 -36.3134 307.644 319.452C328.433 383.074 379.108 445.397 446.673 450.591C541.525 458.382 598.696 353.21 654.568 275.306C692.248 222.071 739.025 115.601 800.094 105.214C893.646 89.6326 896.245 224.667 906.639 262.321C917.034 299.975 940.422 338.928 979.402 342.823C1024.88 348.017 1058.66 302.572 1091.15 270.112C1165.21 198.699 1286.05 180.521 1377 228.563" stroke="url(#paint0_linear_219_95292)" stroke-width="2" stroke-miterlimit="10" stroke-linecap="round"/>
<defs>
<linearGradient id="paint0_linear_219_95292" x1="614.755" y1="616" x2="931.993" y2="-134.212" gradientUnits="userSpaceOnUse">
<stop stop-color="#313E54"/>
<stop offset="1" stop-color="#5ED6D5"/>
</linearGradient>
</defs>
</svg>
