<svg width="46" height="57" viewBox="0 0 46 57" fill="none" xmlns="http://www.w3.org/2000/svg">
<path d="M0 30.9687C0 28.4892 0.336045 26.0596 1.14651 23.7096C2.01627 21.2003 3.39998 19.0195 5.36683 17.257C7.99589 14.8971 11.0796 13.7022 14.6278 13.7818C15.804 13.8117 16.9208 14.1104 18.0278 14.4988C19.3325 14.9568 20.6371 15.4248 21.9319 15.9227C22.9993 16.331 24.047 16.3111 25.1144 15.9028C26.3795 15.4149 27.6446 14.9469 28.9097 14.4888C32.4382 13.2142 35.9074 13.3835 39.3271 14.907C41.1951 15.7435 42.7765 16.9583 44.0416 18.5914C44.18 18.7706 44.2986 18.9598 44.4271 19.139C44.5655 19.3282 44.5358 19.4477 44.3382 19.5871C43.3004 20.3638 42.3318 21.2202 41.4818 22.2159C40.869 22.9329 40.3649 23.7195 39.9399 24.546C38.8725 26.6172 38.4475 28.8278 38.6155 31.1579C38.6649 31.7753 38.7242 32.3926 38.8428 33C39.0207 33.946 39.3469 34.8323 39.7521 35.7085C40.9876 38.3573 43.0335 40.1895 45.5637 41.5138C46.1073 41.7926 46.0579 41.703 45.8701 42.2507C45.1783 44.3418 44.2097 46.3134 43.1027 48.2153C42.3812 49.4401 41.6201 50.6549 40.7998 51.81C39.9597 52.985 39.0702 54.1202 37.9533 55.0662C35.7097 56.9681 33.2289 57.4361 30.4812 56.4304C29.5917 56.1018 28.7318 55.6835 27.8522 55.3649C25.3022 54.4388 22.7522 54.4289 20.222 55.4246C19.4412 55.7333 18.6703 56.0619 17.8894 56.3706C16.6243 56.8585 15.3197 57.1174 13.9755 56.9482C12.572 56.7689 11.3662 56.1117 10.3581 55.1458C9.50809 54.3393 8.72728 53.463 7.97612 52.5568C6.62206 50.9238 5.41625 49.1812 4.40812 47.3092C2.95522 44.6206 1.80871 41.8126 1.07732 38.8452C0.424998 36.2662 0 33.6473 0 30.9687Z" fill="#BABABA"/>
<path d="M34.4245 1.09574C34.4245 2.97773 33.96 4.76015 33.1298 6.43303C32.2303 8.25527 30.985 9.78875 29.374 11.0135C27.7036 12.2782 25.8356 13.015 23.7403 13.1146C23.6908 13.1146 23.6414 13.1246 23.592 13.1146C22.9397 13.1046 22.831 13.0349 22.8409 12.3777C22.8507 11.6807 22.8903 10.9837 22.999 10.2966C23.3153 8.46439 24.0664 6.80146 25.1339 5.2879C26.3199 3.5951 27.8618 2.30061 29.6804 1.34468C31.0245 0.637687 32.4379 0.129848 33.9699 0.0103559C34.3652 -0.019517 34.3949 -0.00955933 34.4245 0.388746C34.4245 0.418619 34.4344 0.458449 34.4344 0.488322C34.4245 0.697433 34.4245 0.896585 34.4245 1.09574Z" fill="#BABABA"/>
</svg>
