<svg width="322" height="67" viewBox="0 0 322 67" fill="none" xmlns="http://www.w3.org/2000/svg">
<path fill-rule="evenodd" clip-rule="evenodd" d="M308.648 39.8519H292.677V59.5169H279.69V9.57143H292.677V28.3662H308.648V9.57143H321.987V59.5169H308.648V39.8519Z" fill="#BABABA"/>
<path fill-rule="evenodd" clip-rule="evenodd" d="M275.127 19.1429L264.772 25.7558C262.841 23.8416 260.56 20.187 254.768 20.187C251.083 20.187 244.413 23.3195 244.413 33.413C244.413 43.8545 248.976 48.5532 255.821 48.3792C261.262 48.2052 262.315 47.161 265.474 43.3325L274.951 50.2935C271.441 54.8182 267.229 60.7351 255.47 60.561C242.834 60.387 231.601 50.2935 231.601 33.587C231.777 19.839 241.43 8.52727 254.768 8.52727C263.192 8.52727 270.037 12.1818 275.127 19.1429Z" fill="#BABABA"/>
<path fill-rule="evenodd" clip-rule="evenodd" d="M188.251 50.9896L195.798 43.3325C198.782 46.2909 204.573 49.0753 208.61 49.0753C212.822 49.0753 215.63 48.7273 215.63 44.8987C215.63 42.8104 214.753 41.7662 212.647 41.0701C208.61 40.026 203.345 38.4597 198.782 36.5455C193.166 33.761 189.831 30.8026 189.831 22.9714C189.831 9.74545 204.573 7.65714 209.137 7.83117C213.875 7.83117 220.896 9.74545 226.336 15.4883C223.528 17.7506 223.177 18.6208 218.614 23.8416C215.63 20.361 212.471 18.4468 208.61 18.4468C205.451 18.4468 202.116 20.013 202.467 23.1455C202.643 25.4078 203.345 26.8 205.451 27.1481C207.733 27.8442 210.19 28.7143 217.21 30.2805C224.055 32.0208 228.091 37.0675 227.916 43.8545C227.74 54.1221 220.369 59.5169 210.541 59.5169C201.59 59.8649 194.394 57.6026 188.251 50.9896Z" fill="#BABABA"/>
<path fill-rule="evenodd" clip-rule="evenodd" d="M138.759 33.413C138.759 28.3662 139.461 23.8416 141.391 20.361C143.146 16.7065 145.077 13.9221 147.534 12.3558C150.167 10.6156 152.624 9.3974 155.081 8.7013C157.362 8.00519 159.82 7.65714 161.926 7.65714C164.032 7.65714 166.489 8.00519 168.946 8.7013C171.227 9.3974 173.86 10.4416 176.493 12.3558C179.125 14.0961 181.231 16.8805 182.635 20.361C184.39 23.8416 185.268 28.1922 185.268 33.413C185.268 38.9818 184.39 43.3325 182.635 46.813C181.056 50.4675 178.95 53.2519 176.493 54.8182C173.86 56.5584 171.403 57.7766 168.77 58.4727C166.489 59.1688 164.032 59.5169 161.926 59.5169C159.995 59.5169 157.713 59.1688 155.081 58.4727C152.799 57.7766 150.167 56.5584 147.534 54.8182C144.902 53.0779 142.971 50.2935 141.391 46.813C139.285 43.3325 138.759 38.9818 138.759 33.413ZM150.869 34.1091C150.869 36.7195 151.22 38.9818 151.922 40.7221C152.624 42.6364 153.501 44.2026 154.73 44.8987C155.607 46.1169 156.836 46.813 158.24 47.161C159.293 47.5091 160.522 47.8571 161.926 47.8571C163.154 47.8571 164.558 47.6831 165.787 47.161C167.015 46.813 168.068 46.1169 169.297 44.8987C170.35 44.0286 171.227 42.6364 172.105 40.7221C172.456 38.9818 172.982 36.7195 172.982 34.1091C172.982 31.3247 172.631 29.2364 172.105 27.4961C171.227 25.5818 170.35 24.3636 169.297 22.9714C168.244 22.1013 167.191 21.2312 165.787 20.8831C164.558 20.5351 163.154 20.5351 161.926 20.5351C160.697 20.5351 159.293 20.5351 158.24 20.8831C157.011 21.2312 155.607 22.1013 154.73 22.9714C153.501 24.1896 152.624 25.5818 151.922 27.4961C151.395 29.0623 150.869 31.3247 150.869 34.1091Z" fill="#BABABA"/>
<path fill-rule="evenodd" clip-rule="evenodd" d="M93.4783 57.6026V8.52727H117.347C124.894 8.52727 132.967 13.574 132.967 21.7532C132.967 26.8 131.914 30.2805 127 32.8909C132.441 35.1532 135.424 36.5455 135.249 46.1169C135.249 55.5143 127 58.2987 114.364 58.2987L93.4783 57.6026ZM106.115 48.5532H115.592C119.629 48.5532 122.086 46.639 122.086 43.1584C122.086 39.6779 119.278 37.7636 116.119 37.7636H106.115V48.5532ZM105.588 18.7948V28.5403H114.364C117.347 28.5403 120.155 26.626 120.155 23.6675C120.155 20.7091 117.874 18.7948 114.364 18.7948H105.588Z" fill="#BABABA"/>
<path fill-rule="evenodd" clip-rule="evenodd" d="M46.6183 45.2468H22.3985V55.5143L18.7129 52.9039C15.9048 50.2935 13.6232 47.3351 11.8682 44.2026C10.2886 40.7221 9.5866 37.4156 9.5866 33.413C9.5866 29.5844 10.4641 26.1039 11.8682 22.7974C13.6232 19.6649 15.9048 16.3584 18.7129 14.0961L22.3985 11.4857V22.9714H46.6183V11.1377L50.1284 13.7481C53.112 16.0104 55.7446 19.1429 57.6752 22.6234C59.2547 25.7558 59.9567 29.4104 59.9567 33.413C59.9567 37.4156 59.0792 41.2442 57.6752 44.5507C55.7446 48.2052 53.112 51.1636 50.1284 53.426L46.6183 56.0364V45.2468ZM51.006 20.187V46.813C51.8835 45.5948 52.9365 44.2026 53.6385 42.8104C55.2181 40.026 55.7446 36.8935 55.7446 33.413C55.7446 30.2805 55.0426 26.974 53.6385 24.1896C52.9365 22.7974 51.8835 21.4052 51.006 20.187ZM22.3985 27.1481V40.8961H46.2673V27.1481H22.3985ZM18.0109 45.9429V21.0571C17.3089 22.2753 16.4313 23.3195 15.9048 24.7117C14.8518 27.3221 13.9742 30.4545 13.9742 33.413C13.9742 36.5455 14.8518 39.8519 15.9048 42.2883C16.4313 43.6805 17.3089 44.7247 18.0109 45.9429ZM34.8594 0C44.3367 0 52.5855 3.82857 58.7282 9.74545C64.6954 15.8364 68.5565 24.1896 68.5565 33.413C68.5565 42.8104 64.6954 50.9896 58.7282 57.2545C52.761 63.1714 44.3367 67 34.8594 67C25.3821 67 17.1333 63.1714 10.9906 57.2545C4.84794 50.9896 0.986816 42.8104 0.986816 33.413C0.986816 24.1896 4.84794 16.0104 10.9906 9.74545C17.1333 3.82857 25.3821 0 34.8594 0ZM55.7446 12.7039C50.3039 7.48312 43.1082 4.17662 34.8594 4.17662C26.6107 4.17662 19.4149 7.30909 13.7987 12.7039C8.70907 18.2727 5.19895 25.2338 5.19895 33.413C5.19895 41.4182 8.70907 48.7273 13.7987 54.2961C19.4149 59.6909 26.6107 62.8234 34.8594 62.8234C43.1082 62.8234 50.3039 59.6909 55.7446 54.2961C61.1853 48.7273 64.3444 41.5922 64.3444 33.413C64.3444 25.2338 61.0098 18.2727 55.7446 12.7039Z" fill="#BABABA"/>
</svg>
