<svg width="48" height="47" viewBox="0 0 48 47" fill="none" xmlns="http://www.w3.org/2000/svg">
<path d="M47.712 13.193C47.712 15.3918 47.712 17.5906 47.712 20.0643C42.2149 20.0643 36.443 20.0643 30.9459 20.0643C30.1213 20.0643 29.2968 20.0643 28.4722 20.3392C27.6476 20.614 27.0979 21.1637 26.8231 21.9883C26.8231 22.2632 26.8231 22.8129 26.8231 23.0877C26.8231 24.1871 26.8231 25.0117 26.8231 26.1111C26.8231 26.1111 26.8231 26.1111 26.8231 26.386H27.0979C33.9693 26.386 40.8406 26.386 47.712 26.386H47.9868C47.9868 28.5848 47.9868 31.0585 47.9868 33.2573C47.9868 33.2573 47.9868 33.2573 47.712 33.2573C40.8406 33.2573 33.9693 33.2573 27.0979 33.2573C27.0979 33.2573 27.0979 33.2573 26.8231 33.2573V33.5322C26.8231 37.9298 26.8231 42.3275 26.8231 46.7251C26.8231 46.7251 26.8231 46.7251 26.8231 47C24.0745 47 21.0511 47 18.3026 47C18.3026 42.6023 18.3026 37.9298 18.3026 33.5322C18.3026 33.5322 18.3026 33.5322 18.3026 33.2573C15.2792 33.2573 12.5307 33.2573 9.50728 33.2573V33.5322C9.50728 37.9298 9.50728 42.3275 9.50728 46.7251C9.50728 46.7251 9.50728 46.7251 9.50728 47C6.75875 47 4.01021 47 0.986816 47C0.986816 35.1813 0.986816 23.6374 0.986816 11.8187C0.986816 10.4444 1.26167 9.34503 1.53652 8.24561C2.08623 6.32164 2.91079 4.67251 4.28506 3.29825C6.20904 1.37427 8.68272 0.549708 11.4313 0C11.7061 0 11.981 0 12.2558 0C24.0745 0 35.8932 0 47.712 0C47.712 2.19883 47.712 4.67251 47.712 6.87135H47.4371C37.5424 6.87135 27.9225 6.87135 18.0278 6.87135C17.478 6.87135 16.6535 6.87135 16.1038 6.87135C15.0044 6.87135 14.1798 7.1462 13.3552 7.42105C11.981 7.97076 10.8816 8.52047 10.3318 9.89474C10.057 10.4444 9.78214 11.269 9.78214 12.3684C9.50728 13.4678 9.50728 14.8421 9.50728 16.2164C9.50728 19.5146 9.50728 22.8129 9.50728 26.1111C9.50728 26.1111 9.50728 26.1111 9.50728 26.386C12.5307 26.386 15.2792 26.386 18.3026 26.386V26.1111C18.3026 24.7368 18.3026 23.3626 18.3026 21.9883C18.3026 21.1637 18.3026 20.3392 18.5775 19.5146C19.1272 17.0409 20.7763 15.117 22.9751 14.0175C24.3494 13.4678 25.9985 13.193 27.3728 13.193C34.2441 13.193 40.8406 13.193 47.712 13.193Z" fill="#BABABA"/>
</svg>
