<svg width="172" height="67" viewBox="0 0 172 67" fill="none" xmlns="http://www.w3.org/2000/svg">
<path fill-rule="evenodd" clip-rule="evenodd" d="M11.4208 33.6139C11.4208 45.1656 19.925 54.7324 31.0459 56.4896V38.983L21.953 14.2525C15.6075 18.3851 11.4208 25.5114 11.4208 33.6139ZM0.986816 33.0607C0.986816 33.0607 0.986816 30.8805 1.41203 28.2773L5.86038 29.0257C5.86038 29.0257 5.5333 30.9456 5.5333 33.0607H0.986816ZM1.44474 38.8854C1.44474 38.8854 1.05223 36.7377 1.01952 34.102H5.5333C5.5333 34.102 5.5333 36.0544 5.89309 38.137L1.44474 38.8854ZM2.8512 44.5799C2.8512 44.5799 2.09891 42.5299 1.57557 39.9267L6.02392 39.1457C6.02392 39.1457 6.38372 41.0656 7.0706 43.0505L2.8512 44.5799ZM5.27163 49.9165L9.16394 47.6712C8.11727 45.849 7.43039 44.0267 7.43039 44.0267L3.21099 45.5561C4.15954 48.0291 5.27163 49.9165 5.27163 49.9165ZM8.57519 54.7649C8.57519 54.7649 7.13601 53.1054 5.79496 50.8276L9.68728 48.5823C9.68728 48.5823 10.6685 50.2744 12.0423 51.8689L8.57519 54.7649ZM12.6965 58.9626C12.6965 58.9626 10.9956 57.5634 9.26206 55.5784L12.6965 52.6824C12.6965 52.6824 13.9721 54.1792 15.5748 55.5134L12.6965 58.9626ZM17.4392 62.3793C17.4392 62.3793 15.5094 61.3055 13.4815 59.6134L16.3598 56.1642C16.3598 56.1642 17.8644 57.4007 19.6961 58.4745L17.4392 62.3793ZM22.7707 64.9174L24.308 60.6872C22.3455 59.9713 20.6119 58.9951 20.6119 58.9951L18.355 62.9C20.6773 64.169 22.7707 64.9174 22.7707 64.9174ZM28.4292 66.4794C28.4292 66.4794 26.2705 66.1214 23.7519 65.2428L25.2892 61.0126C25.2892 61.0126 27.1209 61.6634 29.2142 62.0539L28.4292 66.4794ZM34.1205 67C34.1205 67 31.9291 67 29.3124 66.577L30.0974 62.1515C30.0974 62.1515 32.0272 62.4769 34.1532 62.5095L34.1205 67ZM40.008 66.577C40.008 66.577 37.8493 66.9675 35.1672 67V62.5095C35.1672 62.5095 37.1297 62.5095 39.223 62.1515L40.008 66.577ZM45.732 65.2103C45.732 65.2103 43.6714 65.9587 41.0547 66.4468L40.2697 62.0214C40.2697 62.0214 42.1995 61.6634 44.1947 60.9801L45.732 65.2103ZM51.0962 62.8023L48.8393 58.8975C47.0077 59.9388 45.176 60.5896 45.176 60.5896L46.7133 64.8198C49.1991 63.9087 51.0962 62.8023 51.0962 62.8023ZM55.9698 59.5158C55.9698 59.5158 54.269 60.915 52.0121 62.2817L49.7552 58.4094C49.7552 58.4094 51.456 57.4332 53.0914 56.0991L55.9698 59.5158ZM60.1892 55.4483L56.7221 52.5522C55.3483 54.1467 53.8437 55.4157 53.8437 55.4157L56.7548 58.865C58.7827 57.1404 60.1892 55.4483 60.1892 55.4483ZM63.6563 50.73C63.6563 50.73 62.5442 52.6173 60.8761 54.6673L57.409 51.7713C57.409 51.7713 58.6519 50.2744 59.7313 48.4522L63.6563 50.73ZM66.2076 45.4585L61.9554 43.9291C61.2032 45.8815 60.2546 47.5736 60.2546 47.5736L64.1469 49.8188C65.4553 47.541 66.2076 45.4585 66.2076 45.4585ZM67.843 39.829C67.843 39.829 67.4505 41.9767 66.6001 44.4823L62.3479 42.9529C62.3479 42.9529 63.0021 41.1306 63.3946 39.0481L67.843 39.829ZM68.399 34.1345C68.399 34.1345 68.399 36.3147 67.9738 38.9505L63.5255 38.1695C63.5255 38.1695 63.8525 36.2496 63.8853 34.1345H68.399ZM67.9738 28.3099C67.9738 28.3099 68.3663 30.4575 68.399 33.1258H63.8853C63.8853 33.1258 63.8852 31.1734 63.5255 29.0908L67.9738 28.3099ZM66.5346 22.6153C66.5346 22.6153 67.2869 24.6654 67.7776 27.2686L63.3292 28.0495C63.3292 28.0495 62.9694 26.1297 62.2825 24.1447L66.5346 22.6153ZM64.1796 17.2462L60.2546 19.4915C61.3013 21.3137 61.9554 23.136 61.9554 23.136L66.2076 21.6066C65.2917 19.1661 64.1796 17.2462 64.1796 17.2462ZM23.6538 1.82224C23.6538 1.82224 25.7144 1.07382 28.3311 0.585721L29.1161 4.97863C29.1161 4.97863 27.1863 5.33657 25.1911 6.01991L23.6538 1.82224ZM18.2569 4.19767L20.5138 8.10248C22.3455 7.06119 24.2098 6.41039 24.2098 6.41039L22.6725 2.18018C20.1867 3.12385 18.2569 4.19767 18.2569 4.19767ZM13.3833 7.48422C13.3833 7.48422 15.0842 6.08499 17.3411 4.71831L19.6307 8.62312C19.6307 8.62312 17.9298 9.59932 16.2944 10.9335L13.3833 7.48422ZM9.16394 11.5517C9.16394 11.5517 10.5704 9.85964 12.5983 8.13502L15.5094 11.5843C15.5094 11.5843 14.0048 12.8533 12.631 14.4478L9.16394 11.5517ZM5.72955 16.3026C5.72955 16.3026 6.84164 14.4152 8.50977 12.3652L11.9769 15.2613C11.9769 15.2613 10.7339 16.7581 9.65457 18.5804L5.72955 16.3026ZM3.14558 21.5741L7.39768 23.1034C8.14998 21.151 9.09852 19.459 9.09852 19.459L5.20621 17.2137C3.89787 19.4915 3.14558 21.5741 3.14558 21.5741ZM1.54286 27.2035C1.54286 27.2035 1.93536 25.0559 2.78578 22.5503L7.03789 24.0797C7.03789 24.0797 6.38372 25.9019 5.99122 27.9845L1.54286 27.2035ZM60.8761 12.3978C60.8761 12.3978 62.2825 14.0898 63.6563 16.3351L59.764 18.5804C59.764 18.5804 58.7827 16.8883 57.4417 15.2613L60.8761 12.3978ZM56.7875 8.2001L53.8764 11.6493C55.4792 13.016 56.7548 14.5129 56.7548 14.5129L60.2219 11.6168C58.4556 9.59932 56.7875 8.2001 56.7875 8.2001ZM52.0121 4.75085C52.0121 4.75085 53.9092 5.85721 55.9698 7.51676L53.0587 10.966C53.0587 10.966 51.5541 9.72948 49.7225 8.65566L52.0121 4.75085ZM46.746 2.21272L45.2087 6.44293C47.1712 7.19135 48.872 8.13502 48.872 8.13502L51.1289 4.26275C48.8066 2.96115 46.746 2.21272 46.746 2.21272ZM41.0874 0.585721C41.0874 0.585721 43.2462 0.976202 45.7647 1.82224L44.2274 6.05245C44.2274 6.05245 42.3958 5.40165 40.3024 5.01117L41.0874 0.585721ZM35.2326 0C35.2326 0 37.4241 0 40.0735 0.423021L39.2558 4.84847C39.2558 4.84847 37.326 4.52307 35.1999 4.49053L35.2326 0ZM29.3451 0.423021C29.3451 0.423021 31.5038 0.0325401 34.1859 0V4.49053C34.1859 4.49053 32.2234 4.49053 30.1301 4.84847L29.3451 0.423021ZM34.7093 10.4454C36.3447 10.4454 37.9801 10.6081 39.5174 10.9335L37.1951 20.305L36.7699 22.1923L35.6251 27.0408C35.3307 28.1797 35.0036 30.2297 34.5784 33.1258C34.0878 30.2297 33.172 26.6503 31.8309 22.355C31.6674 21.8669 31.5365 21.4114 31.4057 20.9883C31.2749 20.5653 31.1768 20.1748 31.0459 19.8169L28.4292 11.2589C30.4245 10.7382 32.5178 10.4454 34.7093 10.4454ZM46.2227 13.4716L38.4053 38.9505V56.457C49.4935 54.6999 57.9977 45.1331 57.9977 33.5813C57.965 24.9908 53.255 17.474 46.2227 13.4716Z" fill="#BABABA"/>
<path fill-rule="evenodd" clip-rule="evenodd" d="M123.022 33.4512C123.022 40.6751 122.204 45.8164 120.602 48.8426C118.999 51.8689 116.284 53.3983 112.49 53.3983C108.5 53.3983 105.687 51.7712 104.051 48.4847C102.449 45.2958 101.631 39.6013 101.631 31.4662C101.631 24.1773 102.416 19.0359 104.019 16.0423C105.621 13.016 108.369 11.4866 112.228 11.4866C115.663 11.4866 118.214 12.6581 119.882 15.001C120.994 16.5629 121.779 18.8082 122.27 21.7042C122.761 24.3725 123.022 28.3099 123.022 33.4512ZM117.2 34.0369C117.2 26.9432 116.873 22.2574 116.252 19.9471C115.597 17.6042 114.322 16.4653 112.327 16.4653C110.364 16.4653 109.056 17.5391 108.402 19.6867C107.747 21.8344 107.453 26.1622 107.453 32.6702C107.453 38.6576 107.78 42.7902 108.467 45.1331C109.154 47.3133 110.462 48.4196 112.359 48.4196C114.224 48.4196 115.499 47.4109 116.186 45.3609C116.873 43.2783 117.2 39.5036 117.2 34.0369ZM149.091 33.4512C149.091 40.6751 148.273 45.8164 146.67 48.8426C145.068 51.8689 142.353 53.3983 138.559 53.3983C134.568 53.3983 131.755 51.7712 130.12 48.4847C128.517 45.2958 127.7 39.6013 127.7 31.4662C127.7 24.1773 128.485 19.0359 130.087 16.0423C131.69 13.016 134.437 11.4866 138.297 11.4866C141.731 11.4866 144.283 12.6581 145.951 15.001C147.063 16.5629 147.848 18.8082 148.339 21.7042C148.829 24.3725 149.091 28.3099 149.091 33.4512ZM143.269 34.0369C143.269 26.9432 142.942 22.2574 142.32 19.9471C141.666 17.6042 140.39 16.4653 138.395 16.4653C136.433 16.4653 135.124 17.5391 134.47 19.6867C133.816 21.8344 133.522 26.1622 133.522 32.6702C133.522 38.6576 133.849 42.7902 134.536 45.1331C135.222 47.3133 136.531 48.4196 138.428 48.4196C140.292 48.4196 141.568 47.4109 142.255 45.3609C142.942 43.2783 143.269 39.5036 143.269 34.0369ZM151.773 12.0073H157.137L159.983 19.9145C161.095 23.0384 161.782 25.3162 161.978 26.7805C162.174 25.8694 162.403 25.0233 162.632 24.1447C162.861 23.2987 163.123 22.4526 163.384 21.6066L163.744 20.4026L166.394 11.9747H171.987L164.366 32.117L171.987 52.8776H166.394L163.679 45.1005C163.123 43.5386 162.698 42.1394 162.338 40.9029C162.011 39.6663 161.749 38.56 161.618 37.6163C161.487 38.7878 161.226 39.9267 160.899 41.0005L159.983 43.9291L159.492 45.4585L157.137 52.8776H151.282L159.067 32.117L151.773 12.0073ZM78.1134 12.0073H83.9683L86.6831 20.8907C86.7812 21.151 86.8466 21.4439 86.9447 21.7693C87.0429 22.0947 87.141 22.4201 87.2718 22.8106C88.2858 26.0321 88.9727 28.7329 89.3325 30.9131C89.6595 28.7329 89.9212 27.2035 90.1175 26.3249L90.9679 22.6804L91.295 21.2487L93.5846 12.0073H99.374L92.2108 35.306V52.8776H86.6831V35.306L78.1134 12.0073Z" fill="#BABABA"/>
</svg>
