<svg width="303" height="66" viewBox="0 0 303 66" fill="none" xmlns="http://www.w3.org/2000/svg">
<path fill-rule="evenodd" clip-rule="evenodd" d="M1.06361 38.1489C0.894819 39.0773 0.979216 40.0901 1.57 40.5121C2.24517 41.0184 3.42673 40.934 4.01751 40.4277C4.94588 39.6681 5.11468 37.305 5.45227 35.8702C6.54943 30.722 7.5622 22.7043 8.65936 17.4716C8.99695 16.1213 9.25014 12.8298 10.8537 12.9142C12.626 13.083 12.7948 17.3872 13.2168 19.0752C13.9764 22.9574 14.6516 26.7553 15.4111 30.6376C15.8331 32.6631 15.9175 34.9418 16.9303 36.461C17.6899 37.6426 19.631 38.9929 21.5721 38.1489C23.7665 37.2206 24.3572 34.3511 25.2856 32.1567C27.3111 26.8397 29.4211 21.4383 31.4466 16.1213C32.1218 14.2645 32.8813 12.4078 33.5565 10.5511C33.8097 9.96028 34.2317 8.94751 35.1601 9.03191C37.5232 9.3695 36.426 14.5177 36.848 16.9652C37.1012 23.8014 37.3544 29.034 37.6076 35.8702C38.0296 38.6553 36.848 41.8624 40.1395 41.8624C40.4771 41.8624 40.7303 41.8624 40.9835 41.778C42.6714 41.2716 42.6714 38.6553 42.3338 36.5454C42.2494 35.5326 42.2494 34.5199 42.165 33.4227C42.165 32.6631 42.0806 31.8191 42.0806 31.0596C41.5743 23.0418 41.0679 16.712 40.6459 8.77872C40.2239 6.83758 40.6459 2.95531 39.5487 1.60495C38.9579 0.84538 37.7764 0.676586 36.426 0.676586C36.0884 0.676586 35.7509 0.676586 35.4977 0.760983C34.7381 0.84538 34.0629 0.84538 33.6409 1.26737C32.5438 2.11134 31.6154 5.65602 31.0246 7.17517C29.1679 12.4078 27.3111 17.556 25.37 22.7886C24.6104 24.8142 23.9352 26.8397 23.1757 28.8652C22.8381 29.7936 22.4161 30.8908 21.4033 31.0596C20.475 31.2284 20.053 30.3844 19.7998 29.7936C19.1246 28.0213 19.0402 25.7425 18.6182 23.8014C17.7743 18.7376 16.9303 13.6738 16.0863 8.52552C15.7487 6.75318 15.6643 3.63049 14.4828 2.70212C13.6388 2.02694 11.1913 1.77375 9.75652 2.19573C7.73099 2.78652 7.4778 6.75318 6.97142 8.94751C5.45227 15.8681 3.84872 25.4894 2.32957 32.3255C1.90759 34.2667 1.4856 36.2078 1.06361 38.1489ZM47.9884 27.4305C46.5537 30.6376 48.5792 34.5199 50.436 36.039C52.7991 37.8957 56.597 38.9085 60.5636 37.7269C62.5048 37.1362 64.0239 36.039 66.1338 35.7014C66.6402 35.617 67.231 35.7858 67.653 35.8702C69.5941 36.461 71.3665 38.7397 73.9828 37.9801C74.8268 37.7269 75.5863 37.305 76.2615 36.7986C78.0338 35.5326 79.4686 33.7603 80.3126 31.7348C80.9034 30.4688 81.3253 28.8652 82.0849 27.6837C82.5069 27.0085 83.4353 26.5865 84.3636 27.0929C84.7856 27.3461 85.1232 27.5993 85.4608 27.8525C85.7984 28.1057 86.136 28.4433 86.3048 28.7808C86.558 29.2872 86.3892 29.878 86.136 30.2156C85.7984 30.6376 85.292 30.8908 84.87 31.144C84.1104 31.6504 83.3509 32.3255 82.8445 33.0851C81.5785 34.773 81.8317 36.461 83.5197 37.4738C86.2204 39.0773 92.8034 39.4149 93.6473 35.9546C93.9849 34.6887 93.3097 33.4227 92.9722 32.5787C92.8034 32.1567 92.3814 31.566 92.5502 30.8908C92.719 30.1312 93.3941 29.7936 93.9849 29.3716C95.0821 28.4433 96.2636 27.5149 97.3608 26.5865C97.7828 26.3333 98.5424 26.0801 99.1331 26.3333C99.6395 26.5021 100.062 26.9241 100.399 27.1773C100.821 27.5149 102.003 28.3589 101.834 29.2872C101.665 29.878 101.159 30.2156 100.737 30.5532C99.5551 31.3972 96.2636 34.0135 98.036 36.1234C98.3736 36.461 98.7956 36.7986 99.3019 37.0518C100.146 37.5582 101.159 37.8113 102.171 38.0645C105.379 38.7397 108.923 37.9801 109.514 35.4482C110.105 33.0007 107.066 31.144 109.43 29.6248C109.852 29.3716 110.274 29.2028 110.696 28.9496C111.202 28.6965 111.877 28.2745 112.805 28.4433C114.325 28.6964 114.493 30.3844 115 31.7348C115.759 33.7603 117.194 37.2206 119.22 37.8957C120.317 38.2333 121.245 37.5582 121.752 37.1362C123.355 35.8702 124.537 33.9291 125.718 32.3255C126.14 31.7348 126.984 30.3844 128.081 30.5532C129.854 30.8908 130.023 34.5199 130.529 36.2078C130.782 36.883 131.035 37.7269 131.71 37.9801C132.723 38.2333 133.398 36.7142 133.652 36.1234C134.411 34.2667 135.508 30.2156 137.365 29.7092C138.209 29.456 138.8 30.0468 139.137 30.4688C140.15 31.9035 139.813 34.773 140.488 36.5454C140.741 37.2206 141.247 38.2333 142.26 38.0645C143.442 37.8113 143.779 36.1234 144.117 35.0262C144.708 33.0851 145.383 30.8064 147.324 30.2156C148.759 29.7936 149.265 31.144 149.603 31.9879C150.447 34.0979 150.784 37.1362 152.894 37.9801C153.907 38.4021 155.257 38.0645 156.017 37.6426C157.874 36.7142 158.802 35.0262 161.165 34.6043C161.84 34.5199 162.431 34.773 162.853 35.0262C164.035 35.617 164.879 36.461 165.976 37.1362C169.098 38.9085 173.318 38.1489 175.85 36.461C177.707 35.195 179.395 33.3383 180.07 30.8908C181.252 27.0085 178.635 23.9702 176.019 22.9574C174.078 22.1979 170.786 22.1135 168.845 22.9574C168.423 23.1262 167.157 23.717 167.495 24.3078C167.664 24.6454 168.254 24.561 168.592 24.4766C169.52 24.2234 170.871 23.9702 172.052 24.139C174.922 24.6454 177.369 26.6709 176.272 30.2156C176.103 30.722 175.85 31.3128 175.597 31.7348C174.415 33.5071 170.786 35.5326 167.664 34.6043C165.723 34.0135 164.203 32.7475 163.613 30.8908C163.191 29.456 163.191 27.0929 163.444 25.4894C163.528 24.7298 163.359 23.8014 162.6 23.9702C161.587 24.2234 161.081 27.0929 160.659 28.1057C159.646 30.722 158.127 33.4227 155.088 33.9291C153.654 34.1823 152.979 32.7475 152.641 31.9035C151.797 29.878 151.544 27.4305 151.037 25.1518C150.784 23.9702 150.7 22.7043 149.434 22.4511C148.505 22.2823 147.746 22.873 147.408 23.3794C146.311 24.7298 145.72 26.5865 144.623 28.0213C144.201 28.5277 143.526 29.3716 142.429 29.2028C140.488 28.8652 140.15 26.1645 139.559 24.561C139.306 23.8858 138.884 22.4511 137.787 22.6199C135.93 22.9574 135.34 26.7553 134.496 28.3589C134.158 29.034 133.398 30.2156 132.217 29.7092C130.023 28.7808 131.288 23.3794 128.841 22.7886C127.406 22.4511 126.478 24.3922 125.971 25.2362C124.874 27.1773 124.115 29.456 122.849 31.3128C122.342 32.0723 121.667 33.0007 120.57 33.1695C119.304 33.4227 118.713 32.1567 118.376 31.3128C117.701 29.6248 117.447 27.5993 117.025 25.6582C116.772 24.3922 116.857 23.2106 116.013 22.7043C114.747 21.8603 113.734 23.3794 113.059 23.9702C111.54 25.1518 109.936 26.0801 108.164 27.0929C107.657 27.3461 106.729 28.1057 105.885 27.9369C104.957 27.7681 104.366 27.0085 103.775 26.5021C102.593 25.5738 101.412 24.4766 100.315 23.3794C99.7239 22.7886 99.0488 21.6915 97.8672 21.6071C97.614 21.6915 97.4452 21.6915 97.192 21.8603C96.4324 22.3667 96.0948 23.4638 95.5885 24.2234C94.8289 25.405 92.4658 28.0213 90.8622 28.2745C89.8495 28.4433 89.0899 27.4305 88.5835 26.9241C87.0643 25.405 85.7984 23.9702 83.7729 22.9574C83.0133 22.6199 81.5785 21.9447 80.5658 22.5355C79.8062 23.0418 79.8062 25.3206 79.3842 26.3333C78.4558 29.1184 76.9367 32.0723 74.8268 33.6759C74.0672 34.2667 72.97 35.2794 71.4509 34.8574C68.8346 34.1823 68.2438 30.8908 67.653 28.2745C67.3998 27.0929 67.231 24.561 66.1338 24.3078C65.2055 24.139 65.0367 24.983 64.9523 25.6582C64.7835 26.4177 65.0367 27.2617 64.8679 28.1057C64.8679 28.5277 64.8679 29.034 64.7835 29.456C64.6147 30.3844 64.6147 31.2284 64.2771 31.9035C63.3487 34.0135 60.1416 36.2078 56.6814 35.7014C55.9218 35.617 55.2466 35.617 54.5714 35.3638C52.6303 34.6043 51.5331 33.1695 51.1955 30.8908C51.1111 30.1312 51.2799 29.3716 51.4487 28.9496C52.2927 26.5021 54.487 25.9113 57.3565 25.405C58.3693 25.2362 61.3232 25.6582 61.6608 24.983C61.914 24.3922 60.7324 23.8858 60.3948 23.717C58.8757 22.9574 56.2594 22.4511 54.065 22.9574C51.5331 23.2106 49.17 24.8986 47.9884 27.4305ZM103.522 32.2411C103.859 32.2411 104.197 32.2411 104.45 32.3255C105.21 32.6631 106.307 34.0135 105.801 35.195C105.547 35.7858 104.872 36.1234 104.113 36.2078C102.593 36.461 100.483 35.4482 101.074 33.8447C101.412 32.8319 102.509 32.6631 103.522 32.2411ZM87.8239 32.5787C89.8495 32.5787 91.031 35.8702 88.7523 36.5454C87.2331 36.9674 84.87 36.1234 85.2076 34.5199C85.5452 33.2539 86.7268 33.0007 87.8239 32.5787ZM195.008 4.81205C195.177 5.65602 196.443 5.23403 197.118 5.14964C198.891 4.72765 201.085 3.71488 201.507 6.07801C201.676 10.2135 201.845 14.3489 201.929 18.4844C201.929 19.7504 202.013 20.9319 202.013 22.1979C202.013 23.8014 202.098 25.4894 202.098 27.0929V28.5277C202.351 30.3 202.013 33.1695 203.364 33.7603C204.123 34.0979 204.63 33.4227 204.798 32.9163C205.305 31.8191 205.305 30.3 205.474 28.8652C205.474 28.4433 205.474 28.0213 205.558 27.5993C205.558 26.1645 205.642 24.8142 205.642 23.3794C205.727 20.5099 205.727 17.556 205.811 14.6865C205.811 13.2518 205.811 11.7326 205.896 10.2979V9.2007C205.896 8.27233 205.896 7.42836 205.896 6.49999C205.896 5.90921 205.811 5.31843 205.98 4.72765C206.064 4.22127 206.318 3.88368 206.74 3.63049C207.668 3.1241 211.635 2.87091 213.154 3.1241C214.335 3.2929 215.517 3.3773 216.614 3.63049C220.581 4.64325 223.957 6.49999 226.235 9.2851C227.417 10.8042 228.514 12.5766 229.189 14.6021C229.527 15.7837 229.696 17.0496 229.949 18.4C230.455 21.3539 229.78 25.0674 228.936 27.1773C226.404 33.7603 221.509 36.7986 214.082 38.4021C212.901 38.6553 211.635 38.6553 210.453 38.8241C209.947 38.8241 209.356 38.8241 208.849 38.9085H206.908C206.233 38.9085 205.474 38.8241 204.798 38.8241C203.954 38.7397 203.11 38.6553 202.267 38.6553C201.169 38.4865 199.988 38.3177 198.891 38.1489C198.3 38.0645 197.456 37.8113 196.865 37.9801C196.865 38.0645 196.781 38.0645 196.781 38.1489C197.034 38.7397 197.878 38.8241 198.469 39.0773C200.072 39.6681 201.76 40.0057 203.532 40.4277C212.479 42.3688 222.269 39.7525 227.586 36.039C231.299 33.4227 234.084 29.9624 235.435 24.8986C235.772 23.6326 236.11 21.2695 235.857 19.666C235.857 19.244 235.857 18.9064 235.772 18.4844C235.603 17.3872 235.519 16.2901 235.266 15.2773C234.759 13.3362 234.169 11.5638 233.325 10.0447C229.527 3.63049 222.859 -0.0829891 212.563 0.00140813C212.057 0.00140813 211.55 0.0858053 211.044 0.0858053C210.115 0.170202 209.187 0.338997 208.259 0.423394C204.883 1.09857 201.507 1.60495 198.637 2.70212C197.625 3.1241 196.696 3.3773 195.768 3.88368C195.43 3.96808 194.924 4.30567 195.008 4.81205ZM240.583 26.8397C239.823 30.8064 240.161 35.4482 242.524 37.3894C243.03 37.8113 243.537 38.1489 244.128 38.3177C246.828 39.2461 248.685 37.727 250.204 36.5454C250.964 35.9546 251.976 35.0262 253.411 35.4482C255.437 35.9546 256.112 37.9801 258.306 38.4021C259.403 38.6553 260.416 38.1489 261.091 37.7269C262.273 36.9674 263.201 36.1234 264.889 35.7858C265.818 35.617 266.577 36.039 267.084 36.3766C268.349 37.0518 269.362 38.0645 271.05 38.3177C271.979 38.4865 272.823 38.0645 273.329 37.8113C274.595 37.0518 275.523 36.039 277.127 35.7858C277.971 35.617 278.646 36.039 279.152 36.2922C280.334 36.9674 281.094 37.9801 282.613 38.3177C285.313 38.9085 287.93 36.5454 289.618 35.7858C290.377 35.4482 291.39 35.4482 292.065 35.8702C292.74 36.2922 293.331 36.883 293.922 37.305C295.103 38.1489 297.213 38.7397 299.239 38.2333C299.83 38.0645 300.42 37.8113 300.842 37.5582C301.264 37.305 302.784 36.3766 302.53 35.7014C302.53 35.617 302.446 35.617 302.446 35.5326C301.771 35.3638 300.42 35.9546 299.576 36.039C296.96 36.461 295.103 34.5199 294.344 32.9163C293.837 31.7347 293.584 30.5532 293.247 29.1184C293.162 28.4433 293.078 27.6837 292.993 27.0085C292.74 25.4894 293.078 23.8858 291.643 23.5482C289.449 23.1262 289.955 26.7553 289.702 28.4433C289.196 31.6504 288.52 33.4227 285.904 34.4355C284.554 35.0262 282.95 35.0262 281.853 34.1823C279.912 32.6631 279.996 29.7092 279.996 26.3333C279.996 24.8142 279.996 23.2106 279.912 21.6915C279.912 20.3411 279.659 17.7248 280.165 16.9652C280.84 15.8681 283.203 16.5433 284.469 15.9525C284.807 15.7837 285.313 15.4461 285.145 14.8553C284.723 13.083 281.6 14.3489 280.334 13.4206C278.815 12.3234 280.756 7.76595 278.73 6.92198C278.055 6.66879 277.464 7.00637 277.211 7.42836C276.536 8.27233 276.789 10.0447 276.789 11.4794C276.789 12.0702 276.789 12.5766 276.62 12.9986C276.452 13.3362 276.198 13.5894 275.861 13.7581C275.354 14.0113 274.679 13.8425 274.004 13.9269C272.991 13.9269 271.894 14.0113 270.881 14.0113C270.206 14.0113 269.447 14.0957 268.856 13.9269C266.24 13.2518 269.278 6.83758 266.071 6.75318C265.48 7.00637 265.142 7.17517 264.889 7.76595C264.383 9.2851 265.142 11.7326 264.552 13.1674C263.961 14.6021 261.345 13.5894 260.332 15.0241C260.247 15.1929 259.994 15.5305 260.079 15.9525C260.501 18.0624 263.539 16.6277 264.298 17.978C264.805 18.822 264.552 21.3539 264.552 22.6199C264.552 26.7553 264.467 29.6248 262.948 32.2411C262.611 32.8319 262.273 33.3383 261.767 33.7603C261.345 34.0979 260.923 34.4355 260.416 34.6043C259.825 34.8574 258.813 34.9418 258.137 34.6887C255.606 33.8447 255.774 30.4688 255.268 27.5993C255.015 25.9957 255.606 23.717 254.002 23.4638C252.23 23.2106 252.061 26.5021 251.723 27.9369C251.048 31.0596 250.12 34.1823 246.997 34.8574C245.056 35.2794 243.959 33.7603 243.621 32.4099C243.452 31.7348 243.537 30.9752 243.452 30.2156C243.284 29.2028 243.368 27.7681 243.537 26.8397C243.79 25.405 243.199 23.2106 241.764 23.4638C240.836 23.8014 240.836 25.6582 240.583 26.8397ZM267.927 23.1262C267.927 21.6915 267.759 18.4844 268.265 17.7248C269.025 16.7121 272.401 17.0496 274.004 16.7964C274.342 16.7964 274.764 16.7121 275.101 16.7121C277.296 16.7121 276.958 18.0624 276.958 20.0879C276.958 20.9319 276.958 21.7759 276.958 22.7043C276.958 23.295 276.958 23.9702 276.874 24.561C276.62 26.2489 276.874 28.1057 276.452 29.6248C276.114 31.0596 275.439 32.1567 274.595 33.1695C273.92 33.9291 272.823 35.0262 271.303 34.6887C267.252 33.5915 267.927 28.1901 267.927 23.1262ZM289.955 14.0113C290.208 13.083 290.715 12.9142 291.643 12.5766C294.428 12.4922 294.513 16.0369 291.981 16.4589C290.715 16.6277 289.533 15.2773 289.955 14.0113ZM114.831 13.083C114.409 14.3489 115.591 15.6993 116.941 15.4461C119.22 15.0241 119.135 11.6482 116.435 11.7326C115.591 12.0702 115.084 12.239 114.831 13.083Z" fill="#BABABA"/>
<path fill-rule="evenodd" clip-rule="evenodd" d="M93.4786 62.7929H94.3226L94.1538 60.7674L95.7574 61.949L96.1794 61.1894L94.3226 60.3454L96.1794 59.5014L95.7574 58.7419L94.1538 59.9234L94.3226 57.8979H93.4786L93.6474 59.9234L92.0439 58.7419L91.6219 59.5014L93.4786 60.3454L91.6219 61.1894L92.0439 61.949L93.6474 60.7674L93.4786 62.7929ZM107.657 66C109.852 66 111.455 64.7341 111.455 62.8773C111.455 61.1894 110.274 60.261 107.826 59.7546C105.379 59.2482 104.788 58.6575 104.788 57.5603C104.788 56.5475 105.716 55.788 107.151 55.788C108.333 55.788 109.345 56.1255 110.358 56.9695L111.118 55.9568C110.021 55.0284 108.839 54.6064 107.151 54.6064C105.041 54.6064 103.522 55.8724 103.522 57.6447C103.522 59.5014 104.703 60.3454 107.235 60.8518C109.599 61.3582 110.105 61.9489 110.105 62.9617C110.105 64.0589 109.092 64.9029 107.657 64.9029C106.138 64.9029 104.957 64.3965 103.86 63.2993L103.1 64.2277C104.45 65.4092 105.885 66 107.657 66ZM115.084 65.8312H116.35V54.6908H115.084V65.8312ZM120.57 65.8312H121.836V56.6319L129.01 65.8312H130.023V54.6908H128.757V63.6369L121.752 54.6908H120.57V65.8312ZM139.222 66C141.247 66 142.513 65.2404 143.695 64.0589L142.851 63.2149C141.754 64.2277 140.741 64.8185 139.222 64.8185C136.774 64.8185 134.918 62.7929 134.918 60.1766C134.918 57.6447 136.774 55.6192 139.222 55.6192C140.741 55.6192 141.754 56.2943 142.767 57.1383L143.611 56.2099C142.513 55.1972 141.247 54.4376 139.222 54.4376C135.93 54.4376 133.567 57.0539 133.567 60.1766C133.652 63.4681 136.015 66 139.222 66ZM146.902 65.8312H155.089V64.6497H148.168V60.7674H154.245V59.5858H148.168V55.788H155.004V54.6064H146.902V65.8312ZM165.554 65.8312H166.82V54.6064H165.891L163.191 55.5348L163.528 56.5475L165.638 55.8724V65.8312H165.554ZM174.078 66C176.863 66 178.72 63.4681 178.72 59.9234C178.72 57.7291 178.213 56.4631 177.369 55.6192C176.61 54.8596 175.682 54.4376 174.416 54.4376C172.052 54.4376 170.364 56.1255 170.364 58.2355C170.364 60.261 171.968 61.6958 174.247 61.6958C175.766 61.6958 176.779 60.8518 177.369 59.9234C177.454 62.7929 176.019 64.8185 174.078 64.8185C173.065 64.8185 172.221 64.3965 171.293 63.6369L170.533 64.6497C171.546 65.4092 172.643 66 174.078 66ZM174.416 60.683C172.812 60.683 171.63 59.6702 171.63 58.2355C171.63 56.8851 172.643 55.6192 174.331 55.6192C176.019 55.6192 177.201 56.7163 177.201 58.1511C177.201 59.417 176.103 60.683 174.416 60.683ZM185.725 66C188.088 66 189.945 64.7341 189.945 62.7929C189.945 61.4426 188.932 60.5986 187.666 60.0922C188.679 59.5858 189.607 58.8263 189.607 57.5603C189.607 55.8724 187.835 54.6064 185.809 54.6064C183.784 54.6064 182.011 55.8724 182.011 57.5603C182.011 58.8263 182.855 59.6702 183.952 60.0922C182.602 60.5986 181.674 61.527 181.674 62.8773C181.505 64.6497 183.277 66 185.725 66ZM185.725 59.5858C184.29 59.5858 183.193 58.7419 183.193 57.5603C183.193 56.4631 184.29 55.6192 185.725 55.6192C187.16 55.6192 188.257 56.4631 188.257 57.5603C188.257 58.7419 187.075 59.5858 185.725 59.5858ZM185.725 64.9029C183.868 64.9029 182.771 63.9745 182.771 62.7929C182.771 61.527 184.037 60.683 185.725 60.683C187.328 60.683 188.679 61.527 188.679 62.7929C188.594 63.8901 187.497 64.9029 185.725 64.9029ZM196.528 66C198.891 66 200.494 64.4809 200.494 62.2865C200.494 60.1766 198.806 58.9107 196.612 58.9107C195.684 58.9107 195.093 59.0794 194.418 59.417L194.671 55.8724H199.988V54.6908H193.574L193.236 60.0922L194.08 60.683C194.755 60.3454 195.515 60.0078 196.443 60.0078C198.047 60.0078 199.228 60.9362 199.228 62.3709C199.228 63.8057 198.131 64.8185 196.528 64.8185C195.43 64.8185 194.333 64.2277 193.321 63.2993L192.477 64.2277C193.489 65.2404 194.924 66 196.528 66ZM209.44 62.7929H210.284L210.116 60.7674L211.719 61.949L212.141 61.1894L210.284 60.3454L212.141 59.5014L211.719 58.7419L210.116 59.9234L210.284 57.8979H209.44L209.609 59.9234L208.006 58.7419L207.584 59.5014L209.44 60.3454L207.584 61.1894L208.006 61.949L209.609 60.7674L209.44 62.7929Z" fill="#BABABA"/>
</svg>
