<svg width="114" height="47" viewBox="0 0 114 47" fill="none" xmlns="http://www.w3.org/2000/svg">
<path d="M76.6928 40.1416C76.2409 40.5551 74.8491 44.2223 74.8491 45.0672C75.3913 45.1571 75.9517 45.1931 76.5301 45.1931C77.0904 45.1931 77.6688 45.1931 78.2653 45.1931C78.2653 45.4268 78.2653 45.6065 78.2653 45.8223C78.1026 45.8402 77.958 45.8582 77.8134 45.8582C75.2648 45.8402 72.7342 45.8223 70.1856 45.8043C70.0952 45.8043 70.0229 45.8043 69.9325 45.7863C69.7698 45.7683 69.6975 45.6425 69.7156 45.4987C69.7337 45.4088 69.8241 45.265 69.8964 45.247C70.0952 45.1931 70.294 45.1931 70.4929 45.1751C71.487 45.1391 72.4812 45.1212 73.4753 45.0852C73.6018 45.0852 73.7464 45.0672 73.9091 45.0493C74.1983 44.2763 74.4695 43.5033 74.7587 42.7303C75.2286 41.4539 75.7167 40.1955 76.1686 38.9192C76.277 38.6316 76.3493 38.308 76.3312 38.0024C76.2951 35.3958 76.2409 32.7712 76.1686 30.1645C76.0782 27.3242 74.6683 25.3468 72.1377 24.1064C70.7278 23.4233 69.2456 23.1357 67.6911 23.1177C65.3594 23.0997 63.0457 23.0997 60.714 23.0817C60.6236 23.0817 60.5513 23.0997 60.4428 23.0997C60.4428 30.4162 60.4428 37.6968 60.4428 45.0493C61.907 45.0852 63.353 45.1212 64.8352 45.1751C64.8352 45.4088 64.8352 45.5886 64.8352 45.7683C58.2015 45.7683 51.5497 45.7683 44.934 45.7683C44.7714 45.265 44.8075 45.1931 45.2413 45.1751C46.4705 45.1571 47.6996 45.1571 48.9287 45.1391C49.1456 45.1391 49.3625 45.1391 49.5794 45.1391C49.6698 44.7976 49.5252 44.5459 49.4348 44.2763C48.8564 42.6224 48.2599 40.9685 47.6634 39.3147C46.6874 36.6002 45.7113 33.9037 44.7171 31.1892C44.6629 31.0095 44.5906 30.8477 44.5002 30.6499C39.4752 30.6499 34.4322 30.6499 29.4072 30.6499C29.0456 31.2791 24.346 44.2403 24.3279 44.7437C24.581 44.7437 24.834 44.7796 25.069 44.7437C28.1599 44.1684 30.7809 42.8022 32.6969 40.2315C33.6549 38.9372 34.161 37.4631 34.3418 35.8632C34.396 35.3778 34.4141 34.8924 34.4864 34.4071C34.5406 33.9936 34.6129 33.9576 35.1009 33.9756C35.1913 34.3351 35.2275 44.9594 35.1371 45.6964C35.0106 45.7144 34.866 45.7324 34.7214 45.7324C32.2089 45.7503 29.6964 45.7503 27.2019 45.7503C20.4598 45.7503 13.7357 45.7683 6.99348 45.7683C5.04133 45.7683 3.08917 45.7324 1.13701 45.6964C0.974331 45.6964 0.811651 45.6784 0.558594 45.6605C0.667047 45.4447 0.721274 45.283 0.811651 45.1391C1.84196 43.3594 2.85419 41.5618 3.90257 39.7821C9.57829 30.0028 15.254 20.2414 20.9116 10.4621C22.3758 7.92738 23.858 5.37469 25.3221 2.83997C25.4486 2.60628 25.539 2.37258 25.7017 2.049C25.4486 2.01304 25.304 1.97709 25.1413 1.97709C22.7734 1.95911 20.3875 1.92316 18.0196 1.92316C16.7904 1.92316 15.5613 1.94114 14.3322 2.03102C10.5905 2.28269 7.73458 4.04441 5.71012 7.15438C4.40868 9.14979 3.75796 11.289 3.59528 13.5721C3.57721 13.9136 3.54106 14.2372 3.50491 14.5788C3.45068 15.0641 3.37838 15.1181 2.78188 15.0461C2.78188 14.5608 2.78188 14.0574 2.78188 13.5541C2.76381 10.6778 2.72766 7.80154 2.72766 4.90729C2.72766 3.88262 2.76381 2.85795 2.79996 1.85125C2.81804 1.25802 2.85419 1.24005 3.45068 1.24005C5.45706 1.22207 7.46345 1.18612 9.46983 1.16814C12.4884 1.15016 15.5071 1.13219 18.5076 1.15016C23.3699 1.16814 28.2322 1.20409 33.1126 1.24005C33.3838 1.24005 33.6368 1.276 33.9803 1.29398C33.8357 1.59958 33.7272 1.83328 33.6007 2.06697C31.8835 5.10504 30.1663 8.1431 28.413 11.1452C23.5145 19.6122 18.6161 28.0613 13.6995 36.5103C12.2535 38.9911 10.8255 41.4719 9.39753 43.9527C9.21678 44.2763 9.0541 44.6178 8.83719 45.0493C9.21678 45.0852 9.48791 45.1212 9.77712 45.1212C12.8319 45.1571 15.8686 45.1751 18.9233 45.1931C20.1886 45.1931 21.4539 45.1931 22.7192 45.1931C22.9 45.1931 23.0807 45.1931 23.2795 45.1931C23.4422 44.7976 23.5868 44.456 23.7314 44.0965C25.6113 38.9552 27.4911 33.8138 29.371 28.6725C32.6969 19.5583 36.0409 10.4441 39.3848 1.31195C39.4752 1.06028 39.5656 0.808606 39.6741 0.556932C39.7464 0.395142 39.8729 0.233351 39.9994 0.125491C40.2163 -0.0722525 40.3971 -0.0362991 40.5236 0.233351C40.5959 0.377165 40.6501 0.538955 40.7044 0.700745C43.488 8.30489 46.2897 15.927 49.0733 23.5312C50.2844 26.8209 51.4955 30.0926 52.7065 33.3824C52.8511 33.7419 52.9415 34.1374 53.2849 34.5509C53.3211 34.2812 53.3572 34.1014 53.3572 33.9397C53.3753 32.8431 53.4115 31.7285 53.4115 30.6319C53.4295 21.302 53.4476 11.9721 53.4657 2.64223C53.4657 2.44448 53.4657 2.24674 53.4657 1.99507C53.1946 1.99507 52.9957 1.99507 52.7969 1.99507C51.5316 1.97709 50.2663 1.95911 49.001 1.94114C48.8926 1.94114 48.748 1.94114 48.6576 1.90518C48.5491 1.85125 48.3503 1.74339 48.3684 1.68946C48.4045 1.54565 48.4949 1.36588 48.6214 1.31195C48.8203 1.22207 49.0553 1.22207 49.2541 1.20409C51.0074 1.18612 52.7607 1.15016 54.5141 1.15016C58.075 1.16814 61.6178 1.18612 65.1786 1.24005C66.8054 1.25802 68.4503 1.25802 70.059 1.5097C73.2223 1.99507 76.0782 3.10962 78.4642 5.23087C80.5428 7.08247 81.6816 9.43742 81.772 12.2058C81.8624 14.6686 80.9405 16.7899 79.2233 18.5516C77.6327 20.1875 75.6986 21.2841 73.5476 22.0031C73.2946 22.093 73.0234 22.1649 72.7884 22.2728C72.68 22.3267 72.6258 22.4525 72.5535 22.5604C72.6619 22.6323 72.7523 22.7402 72.8607 22.7582C73.5295 22.9379 74.1983 23.1177 74.8491 23.2795C76.4939 23.7109 77.9761 24.5019 79.3679 25.4726C79.7475 25.7423 80.1452 25.994 80.5248 26.2456C80.8501 26.0479 80.9224 25.7603 81.0309 25.5086C81.4466 24.448 81.8443 23.3873 82.242 22.3087C84.881 15.0821 87.5381 7.83749 90.1771 0.610862C90.2675 0.359188 90.3217 0.0535844 90.6651 0.0356077C90.9724 0.0356077 91.0628 0.323235 91.1532 0.556932C91.6954 1.92316 92.2558 3.28939 92.7619 4.67359C97.082 16.4483 101.384 28.2231 105.686 39.9978C106.264 41.5798 106.843 43.1797 107.421 44.7616C107.475 44.8875 107.53 44.9953 107.602 45.1751C109.5 45.1751 111.398 45.1751 113.35 45.1751C113.314 45.4088 113.296 45.5706 113.26 45.7683C107.277 45.7683 101.312 45.7683 95.3648 45.7683C95.2021 45.3009 95.2383 45.229 95.654 45.211C96.4493 45.1751 97.2446 45.1931 98.0219 45.1751C98.5642 45.1571 99.1064 45.1571 99.6306 45.1212C100.01 45.1032 100.082 44.9953 99.9921 44.6358C99.8656 44.1504 99.721 43.665 99.5583 43.1977C98.0942 39.2068 96.612 35.216 95.1479 31.2252C95.0033 30.8477 94.8044 30.6679 94.3887 30.6679C91.0628 30.6679 87.7188 30.6499 84.3929 30.6499C84.176 30.6499 83.9591 30.7038 83.7422 30.7398C83.5072 30.7937 83.4169 30.9555 83.4349 31.1892C83.4349 31.2432 83.4349 31.2971 83.453 31.333C83.8507 32.879 83.7784 34.461 83.8507 36.025C83.923 37.7687 83.9772 39.5124 84.0495 41.2382C84.0676 41.6517 84.1218 42.0651 84.176 42.4966C84.3026 43.5033 84.8087 44.3302 85.4594 45.0672C85.8028 45.4447 86.2366 45.6425 86.7247 45.7324C88.0803 45.9661 89.2914 45.6065 90.4121 44.8695C90.6832 44.6897 90.9544 44.5279 91.2436 44.3841C91.352 44.3302 91.4785 44.3482 91.6051 44.3302C91.6231 44.3661 91.6412 44.4021 91.6774 44.4201C91.587 44.5639 91.4966 44.7077 91.3701 44.8515C90.7736 45.5346 90.0144 46.002 89.1649 46.3256C86.5982 47.2784 84.0495 47.2244 81.537 46.1458C80.0729 45.5166 79.0426 44.4021 78.193 43.1078C77.705 42.3707 77.3435 41.5798 77.0723 40.7528C77 40.5371 76.9458 40.2675 76.6928 40.1416ZM60.4248 22.2009C60.6236 22.2188 60.7321 22.2188 60.8224 22.2188C63.0277 22.2188 65.2329 22.2009 67.4381 22.2009C68.5588 22.2009 69.6433 21.9852 70.6917 21.5897C71.8124 21.1762 72.6438 20.4392 73.2223 19.3965C73.6922 18.5336 73.9995 17.6168 74.126 16.6461C74.3972 14.6327 74.3791 12.6013 74.2526 10.5879C74.1441 8.88014 73.6018 7.31617 72.7342 5.86006C71.8847 4.4399 70.6555 3.45118 69.1553 2.80402C68.4322 2.49841 67.6911 2.22876 66.8777 2.21079C65.974 2.19281 65.0702 2.08495 64.1483 2.08495C63.0819 2.06697 62.0335 2.10293 60.967 2.13888C60.4428 2.15686 60.4248 2.19281 60.4067 2.73211C60.3886 3.25344 60.3886 3.77476 60.3886 4.29608C60.3886 9.49135 60.4067 14.6686 60.4067 19.8639C60.4428 20.6189 60.4248 21.3919 60.4248 22.2009ZM43.9037 29.6792C43.8134 29.3916 43.7591 29.1758 43.6688 28.9601C41.9154 24.0704 40.1621 19.1988 38.3907 14.3091C38.0111 13.2665 37.6315 12.2418 37.2339 11.1991C37.1616 11.0014 37.1254 10.7677 36.782 10.7317C36.6554 11.0194 36.5289 11.307 36.4205 11.5946C35.0648 15.2619 33.7272 18.9111 32.3715 22.5784C31.5762 24.7356 30.799 26.8748 30.0036 29.032C29.9313 29.2477 29.8771 29.4635 29.8048 29.7331C30.6001 29.7691 31.3232 29.805 32.0462 29.823C34.6671 29.841 37.3062 29.8589 39.9271 29.841C41.0478 29.841 42.1866 29.787 43.3072 29.7511C43.5061 29.7691 43.6868 29.7151 43.9037 29.6792ZM87.3935 10.6958C87.1766 11.2171 86.9597 11.6486 86.797 12.098C85.8932 14.5428 85.0075 17.0056 84.1037 19.4504C83.2542 21.7874 82.4046 24.1424 81.537 26.4793C81.3924 26.8568 81.4285 27.1804 81.6455 27.522C82.1335 28.277 82.5854 29.05 83.0734 29.841C84.1218 29.9668 93.6295 29.8769 94.4249 29.7151C94.4068 29.1758 87.8815 11.4688 87.3935 10.6958Z" fill="#BABABA"/>
</svg>
