<svg width="106" height="54" viewBox="0 0 106 54" fill="none" xmlns="http://www.w3.org/2000/svg">
<path fill-rule="evenodd" clip-rule="evenodd" d="M64.127 33.1524C64.9179 37.338 62.7712 40.8448 60.9635 44.1254C58.9298 47.2928 55.6533 49.8946 51.5859 49.5553C42.6602 49.4421 33.8475 48.0847 25.7126 45.596C25.3737 45.4828 24.9218 45.2566 24.8088 44.9172C24.6958 44.4647 24.9218 44.0122 25.2607 43.6729C32.7176 37.6774 41.5303 34.8493 50.2301 31.9081C53.5066 31.0031 57.0091 29.985 60.6245 30.4375C62.0933 30.6637 63.5621 31.795 64.127 33.1524ZM94.7455 15.279C98.9259 18.6727 102.654 23.4239 101.412 29.08C99.3779 37.4511 90.2262 41.8629 82.9953 44.691C79.0408 46.0484 75.0864 47.4059 70.793 47.7453C70.5671 47.7453 70.1151 47.7453 70.0022 47.4059L70.1151 46.9534C76.2162 40.0529 80.8486 32.3606 84.916 24.442C86.8367 20.9352 88.5314 17.3152 90.1132 13.6953C90.3392 13.4691 90.5652 13.2428 90.9041 13.2428C92.4859 13.3559 93.5027 14.4872 94.7455 15.279ZM36.1071 6.45544L35.9941 6.90794C27.1814 16.9759 21.3063 28.6275 15.7701 40.2792C14.6403 41.2973 13.6234 39.9398 12.7195 39.4873C7.74827 36.3199 3.34192 31.1162 4.58473 24.8945C6.61844 16.8627 14.9792 12.451 21.8712 9.62288C25.9386 8.03916 30.232 6.79481 34.7513 6.11608C35.2033 6.11608 35.8812 6.00295 36.1071 6.45544ZM79.9447 8.03916C80.3966 8.26541 81.0745 8.37853 81.3005 8.94415C81.5265 9.50976 81.0745 9.84913 80.7356 10.3016C73.8436 15.7315 65.9348 18.7858 57.7999 21.3877C53.6196 22.4058 49.4392 24.2157 44.9198 23.1976C43.79 22.9714 42.8861 22.1795 42.2082 21.1614C41.0784 17.994 42.6602 14.7134 43.903 11.8853C45.7107 8.37853 48.8743 4.30611 53.1676 4.30611C62.6582 4.30611 71.5839 5.66358 79.9447 8.03916ZM91.582 8.37853C98.7 12.3378 106.835 19.1252 105.931 28.2882C104.914 36.7724 97.0052 42.6548 90.0002 46.2747C69.4372 56.1164 40.4005 56.4557 19.1596 47.8584C11.9287 44.9172 3.90683 39.7136 0.85628 32.0212C-1.51637 25.6863 1.30821 19.0121 6.05352 14.6003C15.9961 5.55046 28.6502 2.49614 41.6433 0.686179C55.7662 -1.01066 70.6801 0.459933 83.2212 4.87172C86.1588 5.77671 88.9834 6.90794 91.582 8.37853Z" fill="#BABABA"/>
</svg>
