<svg width="309" height="47" viewBox="0 0 309 47" fill="none" xmlns="http://www.w3.org/2000/svg">
<path d="M11.7406 12.721C11.5138 11.8204 11.5705 10.9198 11.6839 10.4132C11.9675 9.00599 12.9317 7.48623 15.7109 7.48623C18.3199 7.48623 19.7946 9.06227 19.7946 11.4826C19.7946 12.2707 19.7946 14.1844 19.7946 14.1844H30.7979V11.0886C30.8546 1.51976 22.1768 0 15.9378 0C8.11068 0 1.70154 2.58922 0.510463 9.73772C0.170154 11.7078 0.113436 13.4527 0.623899 15.6479C2.55231 24.5976 18.2632 27.1868 20.5319 32.8719C20.9857 33.9413 20.8155 35.2922 20.6454 36.1365C20.3051 37.6 19.2841 39.1198 16.3348 39.1198C13.5556 39.1198 11.9108 37.5437 11.9108 35.1234V30.9018H0V34.279C0 44.0731 7.77037 47 16.0512 47C24.0485 47 30.571 44.2982 31.6487 36.9808C32.1591 33.2096 31.7621 30.7329 31.592 29.8323C29.777 20.5449 12.9884 17.8431 11.7406 12.721ZM155.408 12.7772C155.237 11.9329 155.294 10.976 155.351 10.5257C155.691 9.11856 156.599 7.5988 159.378 7.5988C161.93 7.5988 163.405 9.17485 163.405 11.5389C163.405 12.3269 163.405 14.2407 163.405 14.2407H174.295V11.2012C174.295 1.74491 165.787 0.281437 159.605 0.281437C151.834 0.281437 145.482 2.81437 144.291 9.90659C144.007 11.8204 143.894 13.5653 144.404 15.7605C146.276 24.5976 161.817 27.1868 164.085 32.8156C164.482 33.885 164.369 35.2359 164.142 36.024C163.802 37.4874 162.838 38.9509 159.888 38.9509C157.166 38.9509 155.464 37.3749 155.464 35.0108V30.7892H143.724V34.1102C143.724 43.7916 151.381 46.7186 159.605 46.7186C167.488 46.7186 174.011 44.0168 175.032 36.812C175.542 33.0407 175.145 30.6204 174.975 29.7198C173.217 20.6012 156.655 17.8994 155.408 12.7772ZM255.685 36.6994L245.306 1.40719H228.914V44.8048H239.747L239.123 8.38683L250.297 44.8048H266.008V1.40719H255.118L255.685 36.6994ZM47.3029 1.40719L39.0787 45.2551H50.9895L57.1718 4.67186L63.1839 45.2551H75.038L66.9273 1.40719H47.3029ZM114.003 1.40719L108.445 35.6862L102.887 1.40719H84.8502L83.886 45.2551H94.946L95.2296 4.67186L102.83 45.2551H114.003L121.604 4.67186L121.887 45.2551H132.947L131.983 1.40719H114.003ZM216.663 1.40719H205.49V33.8287C205.49 34.3916 205.49 35.0108 205.376 35.5174C205.149 36.5868 204.242 38.7257 201.122 38.7257C198.059 38.7257 197.152 36.6431 196.925 35.5174C196.812 35.0671 196.812 34.3916 196.812 33.8287V1.40719H185.638V32.8156C185.638 33.6036 185.695 35.2922 185.752 35.6862C186.546 43.8479 193.012 46.5497 201.122 46.5497C209.233 46.5497 215.756 43.9042 216.55 35.6862C216.606 35.2359 216.72 33.6036 216.663 32.8156V1.40719ZM293.346 20.6012V27.018H297.883V33.3784C297.883 33.9413 297.883 34.5605 297.77 35.0671C297.6 36.2491 296.465 38.2754 293.232 38.2754C290.056 38.2754 288.922 36.2491 288.752 35.0671C288.695 34.5605 288.638 33.9413 288.638 33.3784V13.3401C288.638 12.6084 288.695 11.8766 288.865 11.2575C289.092 10.188 290.056 8.10539 293.232 8.10539C296.635 8.10539 297.43 10.3006 297.656 11.2575C297.77 11.8766 297.77 12.9461 297.77 12.9461V15.3665H308.887V13.903C308.887 13.903 308.943 12.3832 308.83 10.976C307.979 2.81437 301.116 0.22515 293.289 0.22515C285.462 0.22515 278.769 2.87066 277.805 11.0323C277.692 11.7641 277.578 13.115 277.578 13.9593V32.3653C277.578 33.1533 277.578 33.7725 277.748 35.2359C278.486 43.2287 285.462 46.0431 293.289 46.0431C301.173 46.0431 308.093 43.2287 308.83 35.2359C308.943 33.7725 309 33.1533 309 32.3653V20.6012H293.346Z" fill="#BABABA"/>
</svg>
