<svg width="66" height="67" viewBox="0 0 66 67" fill="none" xmlns="http://www.w3.org/2000/svg">
<path d="M33 67C14.8878 67 0 52.1206 0 33.4858C0 14.9079 14.8598 0 33 0C51.2243 0 66.028 14.9932 66 33.5427C66 52.0921 51.1402 67 33 67ZM6.25233 49.8446C6.30841 49.9299 6.33644 50.0153 6.39252 50.1006C7.00934 51.1533 7.68224 52.149 8.43925 53.0879C11.4112 56.9287 15.0561 59.9444 19.4019 62.0781C23.2991 64.0127 27.4205 65.0369 31.7383 65.2361C33.9252 65.3214 36.0841 65.1792 38.2149 64.8093C40.0654 64.4964 41.8878 64.0127 43.6261 63.3584C48.7009 61.4807 53.0187 58.465 56.5794 54.3397C57.785 52.9457 58.8504 51.4662 59.7757 49.873C59.8317 49.7877 59.8598 49.7308 59.8878 49.6454C59.7757 49.5885 59.6916 49.5601 59.6074 49.5316C51.5607 46.2314 43.542 42.9028 35.4953 39.6026C34.7383 39.2896 33.9813 38.9766 33.2243 38.6637C33.0561 38.6068 32.9159 38.5783 32.7476 38.6637C32.7196 38.6637 32.7196 38.6921 32.6916 38.6921C25.1495 41.8501 17.5794 45.0365 10.0374 48.1945C8.83177 48.7066 7.6542 49.1902 6.44859 49.7023C6.42056 49.7308 6.30841 49.7308 6.25233 49.8446ZM60.3084 48.8488C60.6168 48.4221 61.7102 46.0892 62.2149 44.6951C63.3925 41.5087 64.0373 38.18 64.1775 34.766C64.2897 31.6934 63.9813 28.6777 63.1962 25.6904C62.3831 22.5609 61.1495 19.6021 59.4392 16.8425C57.1962 13.1724 54.3084 10.0998 50.8037 7.59618C47.2149 5.06412 43.2897 3.35711 39.028 2.47516C37.0654 2.07686 34.1215 1.79236 33.4205 1.90616C33.4205 1.93461 33.4205 1.99151 33.4205 2.01996C34.7663 11.6645 36.1121 21.3091 37.4579 30.9253C37.8224 31.2382 60.1402 48.7635 60.3084 48.8488ZM5.83177 49.0764C5.97196 49.0195 6.05607 48.9342 6.14018 48.8488C11.6075 44.3822 17.0467 39.8871 22.514 35.4204C24.3925 33.8556 26.299 32.3193 28.1776 30.7546C28.3177 30.6408 28.3738 30.527 28.4019 30.3563C28.486 29.645 28.5981 28.9622 28.7103 28.251C28.8224 27.4259 28.9626 26.6009 29.0747 25.7758C29.1869 24.9223 29.3271 24.0972 29.4392 23.2437C29.5794 22.3902 29.6916 21.5083 29.8318 20.6548C29.9439 19.8013 30.0841 18.9762 30.1962 18.1227C30.3084 17.2977 30.4486 16.4442 30.5607 15.6191C30.6729 14.7656 30.8131 13.9406 30.9252 13.087C31.0374 12.2335 31.1776 11.4085 31.2897 10.555C31.4299 9.58769 31.5701 8.62038 31.7103 7.65308C31.8224 6.79958 31.9626 5.97452 32.0747 5.12102C32.2149 4.09682 32.3832 3.07261 32.5233 2.04841C32.5233 1.99151 32.5794 1.90616 32.5233 1.84926C29.4673 1.87771 24.2804 2.64586 19.3458 5.12102C13.8224 7.88068 9.44859 11.9206 6.28037 17.2692C-0.0841124 27.9949 0.841121 40.3423 5.83177 49.0764Z" fill="#BABABA"/>
</svg>
