<svg width="201" height="47" viewBox="0 0 201 47" fill="none" xmlns="http://www.w3.org/2000/svg">
<path fill-rule="evenodd" clip-rule="evenodd" d="M20.224 0.176075C20.4003 0.0587222 20.6942 -0.117308 20.9292 0.117399C21.1056 0.352105 21.1056 0.645489 21.1643 0.880195C21.1643 11.0313 21.1643 21.1823 21.1643 31.2747C21.1643 32.6829 21.1056 34.1499 21.1643 35.5581C21.517 35.7928 21.8696 35.4407 22.2222 35.2647C26.1012 32.9176 29.9801 30.6293 33.859 28.2822C34.1529 28.1062 34.388 27.9301 34.6818 27.7541C36.5625 26.6392 38.3844 25.5244 40.2651 24.4095C43.5563 22.4145 46.9063 20.4195 50.2563 18.4245C51.1379 17.8964 52.0195 17.3683 52.901 16.8402C54.1352 16.0774 55.3694 15.3733 56.6037 14.6105C62.0694 11.3246 67.5352 8.03875 73.0009 4.75285C73.6474 4.40079 74.2352 3.99006 74.8816 3.638C76.1159 2.8752 77.4088 2.11241 78.643 1.40829C78.9369 1.23226 79.2895 1.05623 79.5834 0.938872C80.2886 0.645489 80.9939 0.528135 81.7579 0.528135C92.1017 0.528135 102.387 0.528135 112.731 0.528135C113.906 0.528135 115.081 1.17358 115.61 2.17108C115.787 2.52314 115.904 2.93388 116.022 3.34461C116.081 3.69667 116.081 4.04873 116.081 4.34212C116.081 16.7816 116.081 29.221 116.081 41.6605C116.081 41.8365 116.081 42.0712 116.316 42.1886C116.492 42.2472 116.668 42.1299 116.845 42.0125C137.121 28.869 157.397 15.7254 177.673 2.58182C178.555 2.05373 179.378 1.40829 180.318 0.997549C180.436 0.938872 180.553 0.880195 180.671 0.880195C181.317 0.645489 181.964 0.528135 182.669 0.528135C186.842 0.528135 190.956 0.528135 195.128 0.528135C196.128 0.528135 197.244 0.410782 198.185 0.821519C198.89 1.17358 199.478 1.76035 199.771 2.52314C200.124 3.40329 200.007 4.40079 200.007 5.33962C200.007 13.6717 200.007 22.0625 200.007 30.3946C200.007 31.9201 199.771 33.5631 198.772 34.854C197.891 36.0862 196.48 36.7903 195.246 37.5531C193.718 38.4919 192.131 39.4308 190.603 40.3696C189.721 40.8977 188.84 41.4258 187.958 41.9538C186.724 42.7166 185.431 43.4794 184.197 44.1836C182.963 44.9464 181.729 45.6505 180.494 46.4133C180.2 46.5893 179.907 46.7653 179.613 46.9414C179.495 46.9414 179.319 46.9414 179.201 46.9414C179.025 46.7067 178.966 46.4133 178.966 46.1199C178.966 35.9688 178.966 25.8178 178.966 15.6667C178.966 15.4907 178.908 15.3147 178.849 15.1386C178.614 15.0799 178.437 15.0799 178.261 15.256C164.861 23.9401 151.402 32.6829 138.002 41.3671C136.298 42.4819 134.594 43.5968 132.889 44.653C132.243 45.1224 131.479 45.4745 130.715 45.7092C129.539 46.0025 128.305 45.8852 127.13 45.8852C121.899 45.8852 116.61 45.8852 111.379 45.8852C107.147 45.8852 102.857 45.8852 98.6254 45.8852C97.8614 45.8265 97.1561 45.5918 96.5684 45.1224C95.9807 44.653 95.5693 43.8902 95.4517 43.1274C95.393 42.7166 95.393 42.2472 95.393 41.8365C95.393 29.397 95.393 16.9576 95.393 4.51815C95.2754 4.16609 94.864 4.22476 94.6289 4.40079C93.571 5.04624 92.5132 5.69168 91.4553 6.27845C84.7553 10.3271 77.9965 14.3171 71.2966 18.3658C69.2983 19.5394 67.3001 20.7716 65.3606 21.9451C64.9492 22.1798 64.4791 22.4145 64.1852 22.7666C64.1852 23.06 64.4203 23.236 64.5966 23.4707C71.3553 30.2185 78.0553 36.9077 84.8141 43.6555C85.2842 44.1836 85.8719 44.653 86.2833 45.1811C86.4597 45.3571 86.4009 45.5331 86.4009 45.7092C86.1658 45.8265 85.8719 45.8852 85.5781 45.8852C79.4071 45.8852 73.236 45.8852 67.065 45.8852C66.7124 45.8852 66.3597 45.8852 66.0071 45.8265C65.4194 45.8265 64.8905 45.7678 64.3027 45.6505C63.715 45.4745 63.1861 45.2397 62.7747 44.829C58.4843 40.5456 54.2528 36.3209 49.9625 32.0375C49.7861 31.8615 49.6098 31.6854 49.4335 31.5681C49.1984 31.5681 49.0221 31.6854 48.8458 31.8028C47.2002 32.8003 45.5546 33.7391 43.9677 34.7366C43.7327 34.9127 43.4388 35.03 43.2037 35.206C38.2081 38.1985 33.2125 41.1911 28.2169 44.1836C27.159 44.829 26.1012 45.5331 24.8669 45.7678C24.5731 45.8265 24.2792 45.8265 24.0441 45.8852C21.6933 45.9439 19.3424 45.8852 16.9328 45.8852C12.5837 45.8852 8.17579 45.8852 3.82669 45.8852C3.06266 45.8265 2.29863 45.7678 1.65214 45.3571C0.946877 44.9464 0.417932 44.1836 0.182845 43.4208C-0.0522415 42.8927 0.00653019 42.1886 0.00653019 41.4844C0.00653019 33.8565 0.00653019 26.2872 0.00653019 18.6592C0.00653019 17.603 0.00653019 16.4882 0.0653019 15.432C0.124074 15.1973 0.124074 15.0213 0.124074 14.7866C0.241617 14.0824 0.417932 13.3783 0.770562 12.7916C1.35828 11.7354 2.29863 10.9139 3.35652 10.2685C7.00036 8.09742 10.6442 5.86771 14.288 3.69667C16.2863 2.52314 18.2258 1.34961 20.224 0.176075Z" fill="#BABABA"/>
</svg>
