<svg width="85" height="54" viewBox="0 0 85 54" fill="none" xmlns="http://www.w3.org/2000/svg">
<path fill-rule="evenodd" clip-rule="evenodd" d="M42.0254 0C65.2254 0 84.0254 12.2 84.0254 27C84.0254 41.8 65.2254 54 42.0254 54C18.8254 54 0.0253906 41.8 0.0253906 27C0.0253906 12.2 18.8254 0 42.0254 0ZM73.4254 15.4C73.0254 18.4 69.6254 21 64.2254 23C60.8254 24.2 56.6254 25.2 52.0254 25.8C52.0254 26.2 52.0254 26.4 52.0254 26.8C52.0254 38 48.4254 47.4 43.6254 49.2C62.6254 48.4 78.0254 38.4 78.0254 26.4C78.0254 22.4 76.4254 18.6 73.4254 15.4ZM47.4254 26.2C45.6254 26.4 44.0254 26.4 42.2254 26.4C40.2254 26.4 38.0254 26.4 36.0254 26.2V27.6L36.2254 30.4L36.6254 33L36.8254 34L37.2254 35.2L38.0254 37.6L38.4254 38.6L39.0254 39.6L39.6254 40.4L40.2254 41L41.2254 41.6H42.0254L42.6254 41.4L43.2254 41L43.8254 40.6L44.6254 39.6L45.0254 38.8L45.6254 37.2L46.0254 36L46.4254 34.6L46.6254 33.6L47.0254 30.6L47.2254 27.6L47.4254 26.2ZM31.8254 25.8C27.4254 25.2 23.2254 24.2 20.0254 23C14.4254 21 10.8254 18 10.8254 15C10.8254 14.8 10.8254 14.6 10.8254 14.4C7.42539 17.8 5.42539 22 5.42539 26.4C5.42539 38.6 21.0254 48.8 40.4254 49.2C35.6254 47.4 31.8254 38 31.8254 26.8C31.8254 26.4 31.8254 26 31.8254 25.8ZM43.8254 4.4C49.6254 4.6 54.8254 5.8 58.6254 7C63.0254 8.6 65.6254 10.6 65.6254 12.6C65.6254 14.8 62.8254 16.8 58.6254 18.2C56.6254 18.8 54.2254 19.4 51.4254 19.8C51.4254 19.6 51.4254 19.6 51.4254 19.4C51.4254 19.2 51.4254 19.2 51.4254 19C50.4254 11.8 47.4254 6 43.8254 4.4ZM47.6254 20.6C46.4254 20.6 45.2254 20.8 44.0254 20.8H43.4254H42.0254H41.0254H39.8254C38.6254 20.8 37.6254 20.8 36.4254 20.6L36.6254 19.6V18.6L36.8254 17.6L37.0254 16.6L37.2254 15.6L37.6254 14.6L38.0254 13.6L38.4254 12.8L38.8254 12L39.4254 11L40.0254 10.4L40.6254 10L41.2254 9.8L41.8254 9.6H42.4254L43.0254 9.8L44.2254 10.6L44.8254 11.2L45.2254 12L46.0254 13.8L46.4254 14.8L46.8254 15.8L47.2254 17L47.4254 18.2L47.6254 20.6ZM32.4254 20.2C29.6254 19.8 27.0254 19.2 25.0254 18.6C20.6254 17.2 18.0254 15.2 18.0254 13C18.0254 10.8 20.8254 8.8 25.0254 7.4C29.0254 6 34.2254 4.8 40.2254 4.8C37.8254 5.8 35.8254 8.6 34.4254 12.4C34.2254 13 34.0254 13.6 33.8254 14.2C33.6254 14.6 33.6254 15 33.4254 15.4C33.2254 16 33.0254 16.6 33.0254 17.4C33.0254 17.4 33.0254 17.4 33.0254 17.6C33.0254 18 32.8254 18.4 32.8254 19C32.8254 19 32.8254 19 32.8254 19.2C32.8254 19.4 32.8254 19.6 32.8254 19.8V20C32.8254 20 32.8254 20 32.8254 20.2C32.4254 20 32.4254 20 32.4254 20.2Z" fill="#BABABA"/>
</svg>
