<svg width="178" height="68" viewBox="0 0 178 68" fill="none" xmlns="http://www.w3.org/2000/svg">
<path fill-rule="evenodd" clip-rule="evenodd" d="M51.7581 67.9602C47.8211 67.5233 44.0432 66.0141 40.9413 63.6312C40.3845 63.2341 40.1062 63.0752 40.1459 62.9561C40.2255 62.7178 44.3613 57.1179 44.5204 57.0782C44.5999 57.0384 44.8385 57.1576 45.1567 57.3959C46.6678 58.3888 48.9743 59.4214 50.6446 59.8185C52.2751 60.2157 54.6213 60.176 56.2916 59.6994C58.6777 59.0242 60.8251 57.1576 61.8988 54.7747C62.5749 53.2655 63.0919 51.0811 63.2509 49.1351C63.3305 48.301 63.2907 48.1819 63.1714 48.1819C63.0919 48.1819 62.9726 48.2613 62.893 48.3408C62.376 48.9762 60.6263 49.9294 59.0753 50.4457C57.4051 51.0017 56.2121 51.2003 54.6611 51.1208C51.8376 50.962 49.8095 50.4457 47.4234 49.2145C42.5718 46.7124 39.4301 42.304 38.595 36.863C38.4757 36.2275 38.4757 33.9638 38.4757 27.0136V18.0379L42.8501 17.9981L47.2246 17.9584C47.2246 17.9584 47.3836 22.2477 47.4234 26.9341C47.5029 34.8375 47.5427 35.5524 47.7018 36.2673C48.4176 39.2856 50.8037 41.5891 53.8658 42.1849C54.9395 42.3834 56.57 42.3437 57.5642 42.026C60.0695 41.2317 62.0181 39.3253 62.893 36.7836L63.2112 35.8304L63.2509 26.8944L63.2907 17.9584L67.7447 17.9187C71.2045 17.9187 72.1987 17.8393 72.2384 17.9584C72.3577 18.1173 72.3577 38.9679 72.2384 42.86C72.1191 46.3153 71.96 48.8173 71.6419 50.9223C70.767 56.8796 69.057 60.732 66.0347 63.6312C63.8474 65.7361 61.0239 67.0467 57.2062 67.7219C56.3314 67.9205 52.6727 68.0396 51.7581 67.9602ZM88.5034 51.1606C88.3841 51.1208 87.7876 51.0017 87.1513 50.8825C84.288 50.2471 81.544 49.2939 79.2375 48.1025C78.0047 47.467 76.0561 46.2358 76.0163 46.0373C75.9766 45.9578 79.9533 40.6757 80.3112 40.3182C80.4703 40.1594 80.351 40.3182 81.2259 40.7948C82.8961 41.748 85.4015 42.6614 87.5092 43.138C88.9806 43.4558 92.0825 43.4955 93.1562 43.1777C94.7469 42.7409 95.582 42.026 95.582 41.0728C95.582 39.9608 94.6276 39.4842 89.5771 38.0147C87.5887 37.4587 85.3617 36.7438 84.6062 36.4658C80.1124 34.7978 77.7661 32.7326 76.931 29.7936C76.7719 29.1582 76.7322 28.761 76.7322 27.6887C76.7322 25.0675 77.4877 23.2406 79.3966 21.2548C81.385 19.1896 83.9699 17.9981 87.4694 17.5216C91.1281 17.045 96.2581 17.879 99.8372 19.547C100.712 19.9442 102.104 20.7782 102.581 21.1754L102.86 21.4137L100.752 24.1938C99.5986 25.7029 98.5646 26.9738 98.4851 26.9738C98.4055 26.9738 97.809 26.7753 97.133 26.537C94.6674 25.6632 92.6392 25.2264 90.452 25.1072C87.6683 24.9881 85.998 25.5044 85.4413 26.6164C85.0038 27.5299 85.481 28.2447 86.9922 28.8802C87.4694 29.0788 89.4976 29.7142 91.4462 30.2702C96.7353 31.7794 98.5646 32.4943 100.473 33.7652C104.092 36.1878 105.206 39.9211 103.536 44.2501C102.979 45.6401 102.502 46.3947 101.507 47.3479C99.5986 49.1748 97.5306 50.2471 94.6276 50.8825C93.5936 51.1208 93.2357 51.2003 91.0485 51.2797C89.8555 51.3194 89.4976 51.3591 88.5034 51.1606ZM15.0923 51.0017C10.2009 50.5251 5.70714 47.8642 2.92341 43.694C0.815721 40.5565 -0.17847 36.9027 0.0601359 33.0503C0.49758 25.9412 5.66738 19.7456 12.5869 17.9981C14.5356 17.5216 15.0128 17.4818 20.0235 17.4024L24.7956 17.3627L24.8354 9.18131L24.8751 0.999921L29.2496 0.960205C32.7094 0.999921 33.7036 0.960205 33.7433 1.03964C33.7831 1.11907 33.7831 4.97147 33.8229 9.53875C33.9422 19.5073 33.7433 35.5127 33.5047 36.9027C33.0673 39.2459 32.3515 41.192 31.1584 43.138C29.8859 45.2032 27.818 47.2287 25.6307 48.5791C24.3582 49.3734 22.4891 50.1677 20.8586 50.5648C19.427 51.0017 16.7228 51.1606 15.0923 51.0017ZM18.4328 42.0657C21.137 41.5097 23.4833 39.4445 24.3582 36.9027C24.7956 35.6715 24.8354 35.0361 24.7956 30.5482L24.7558 26.3384H20.1826C15.1321 26.3384 14.973 26.3384 13.5414 27.0136C11.3541 28.0462 9.76344 29.8334 9.12716 32.1766C8.92832 32.812 8.88855 33.2092 8.88855 34.2021C8.88855 35.7112 9.04762 36.4261 9.76344 37.8559C10.2009 38.7693 10.36 39.0076 11.2746 39.8814C12.3086 40.914 13.1835 41.47 14.3765 41.8274C15.5695 42.2643 17.1602 42.3437 18.4328 42.0657ZM122.067 51.0017C119.999 50.8031 118.011 50.2471 115.983 49.2145C112.841 47.6259 110.296 45.1238 108.705 42.026C107.791 40.2388 107.234 38.6105 106.956 36.7041C106.797 35.6318 106.797 32.7326 106.956 31.7794C107.632 27.8873 109.222 24.8292 111.887 22.2874C114.551 19.7059 117.613 18.2364 121.272 17.6804C126.481 16.9258 131.771 18.6733 135.549 22.4066C137.935 24.7895 139.406 27.5299 140.162 30.9454C140.48 32.3354 140.519 35.1552 140.321 36.6644C139.565 41.6686 136.861 45.8784 132.526 48.6188C130.816 49.6911 128.43 50.6045 126.283 50.9223C125.368 51.0414 123.141 51.1208 122.067 51.0017ZM125.845 41.9069C127.356 41.4303 128.43 40.7551 129.464 39.6828C132.606 36.3467 132.248 31.0248 128.748 28.1653C127.993 27.5299 126.402 26.7753 125.408 26.537C124.374 26.2987 122.624 26.2987 121.63 26.5767C119.482 27.1327 117.653 28.6022 116.619 30.5482C115.943 31.8191 115.744 32.534 115.744 34.2021C115.744 35.3935 115.784 35.751 115.983 36.3864C116.54 38.2927 117.693 39.8814 119.284 40.914C120.119 41.47 120.914 41.7877 122.266 42.1054C122.385 42.1451 123.061 42.1451 123.817 42.1054C124.851 42.1451 125.288 42.1054 125.845 41.9069ZM144.138 50.4854C144.138 50.1677 144.059 34.2021 144.138 32.9312C144.655 26.9738 147.996 22.0094 153.325 19.3088C157.977 16.9258 163.784 16.8861 168.397 19.1896C172.93 21.4534 176.112 25.3058 177.384 29.9525C177.901 31.8986 177.901 31.8191 177.941 41.2714C177.981 46.3947 178.02 50.2074 177.941 50.2074C171.697 50.2471 171.618 50.1677 168.874 50.2074C168.794 50.2074 168.834 46.911 168.834 41.7877C168.834 32.6531 168.834 32.7723 168.277 31.3028C167.442 29.1185 165.255 27.1724 162.909 26.5767C161.795 26.2987 160.045 26.2987 158.932 26.5767C156.069 27.3313 154.001 29.3568 153.086 32.2957C152.927 32.7723 152.927 33.8049 152.887 41.5494L152.847 50.406C152.847 50.406 150.422 50.4457 148.195 50.4457C144.456 50.4854 146.405 50.4854 144.138 50.4854Z" fill="#BABABA"/>
</svg>
