<svg width="69" height="67" viewBox="0 0 69 67" fill="none" xmlns="http://www.w3.org/2000/svg">
<path d="M34.989 0C16.209 0 0.986816 14.9973 0.986816 33.5C0.986816 52.0027 16.209 67 34.989 67C42.2641 67 49.0051 64.7466 54.5357 60.9145C53.98 60.2907 52.4509 58.5677 51.8651 57.8717C47.0624 61.1055 41.2518 62.9982 34.989 62.9982C28.3557 62.9982 22.2263 60.8721 17.2643 57.2734L33.4771 57.3455C33.4771 57.3455 39.4126 57.8038 41.3251 53.2503C43.2332 48.6968 48.5269 35.5243 48.5269 35.5243C48.5269 35.5243 49.9225 31.6582 46.8514 31.6582C43.7803 31.6582 41.8936 31.6582 41.8936 31.6582C41.8936 31.6582 39.236 31.811 40.679 28.4287C42.1219 25.0465 45.3783 16.9325 45.3783 16.9325C45.3783 16.9325 46.3862 13.9322 50.7711 13.9322C54.0834 13.9322 56.4955 13.9916 57.4819 14.017C62.1209 19.2114 64.9293 26.0268 64.9293 33.4873C64.9293 39.7213 62.9652 45.5055 59.614 50.267C59.7863 50.3518 59.8811 50.4155 59.8811 50.4155L62.7929 52.7708C66.6953 47.3176 68.9868 40.6677 68.9868 33.4873C68.9911 14.9973 53.769 0 34.989 0ZM33.6752 9.99823C33.6752 9.99823 30.3026 9.76906 29.1654 12.693C28.0283 15.6169 21.2141 31.8916 21.2141 31.8916C21.2141 31.8916 19.5127 35.6049 23.5616 35.6049C27.6105 35.6049 28.1317 35.6813 28.1317 35.6813C28.1317 35.6813 30.7376 35.223 29.0104 39.4964C27.2831 43.7698 24.3671 50.9672 24.3671 50.9672C24.3671 50.9672 23.4625 53.2546 20.6498 53.2546C18.3583 53.2546 14.1544 53.1867 12.6683 53.1612C7.93025 47.9414 5.04433 41.0538 5.04433 33.4958C5.04433 17.2041 18.4488 3.99759 34.9847 3.99759C41.8936 3.99759 48.2556 6.30194 53.321 10.1765L33.6752 9.99823Z" fill="#BABABA"/>
<path d="M59.4934 52.1342C59.4934 52.1342 57.7877 51.0139 55.8494 52.2827C53.9111 53.5516 53.1789 55.1812 53.1444 56.0681C53.11 56.9551 53.0755 57.0442 53.4502 57.5068C53.825 57.9693 55.6857 60.0573 55.6857 60.0573C55.6857 60.0573 57.8825 58.4828 59.1532 57.2309C60.4238 55.979 61.8625 54.4428 61.7289 53.942L59.4934 52.1342Z" fill="#BABABA"/>
</svg>
