<svg width="261" height="47" viewBox="0 0 261 47" fill="none" xmlns="http://www.w3.org/2000/svg">
<path d="M0.986816 1.83872H30.9629L43.5111 18.4912L55.3621 1.83872H81.8527V9.47112H76.9728V37.9192H81.8527V45.5516H47.6938V37.9192H52.5736V20.5728L33.7514 45.5516L14.9292 20.5728V37.9192H19.809V45.5516H0.986816V37.9192H5.86665V9.47112H0.986816V1.83872Z" fill="#BABABA"/>
<path d="M96.4224 5.44676L107.298 0L110.888 6.31408L100.082 11.969L96.4224 5.44676Z" fill="#BABABA"/>
<path d="M86.0354 12.9404V19.879H91.6123V37.9192H86.0354V45.5516H120.194V37.9192H115.314V12.9404H86.0354Z" fill="#BABABA"/>
<path d="M143.896 10.8588C112.805 12.6629 115.07 48.674 147.382 46.9393C162.684 46.2801 169.341 41.0415 171.781 33.7561H158.536C157.037 40.1048 146.824 43.4353 143.896 35.8376V31.6745H171.781C172.896 23.3135 169.376 13.0098 148.776 10.8588H143.896ZM147.068 17.8668C148.567 17.8321 150.17 18.8382 150.867 20.5728V25.4298H143.896C143.896 20.5728 143.896 20.5728 143.896 20.5728C144.454 18.7341 145.744 17.9015 147.068 17.8668Z" fill="#BABABA"/>
<path d="M209.425 45.5516H173.872V37.9192H179.449V9.47112H173.872V1.83872H203.849V37.9192H209.425V45.5516Z" fill="#BABABA"/>
<path d="M232.918 10.8241C201.827 12.6282 204.093 48.6393 236.404 46.9046C251.706 46.2455 258.363 41.0068 260.803 33.7214H247.558C246.059 40.0701 235.846 43.4006 232.918 35.8029V31.6398H260.803C261.919 23.2788 258.398 12.9751 237.798 10.8241H232.918ZM236.09 17.7974C237.589 17.7627 239.192 18.7688 239.89 20.5034V25.3604H232.918C232.918 20.5034 232.918 20.5034 232.918 20.5034C233.476 18.6647 234.766 17.8321 236.09 17.7974Z" fill="#BABABA"/>
</svg>
