<svg width="1368" height="416" viewBox="0 0 1368 416" fill="none" xmlns="http://www.w3.org/2000/svg">
<path d="M-184 319.669C-137.565 398.004 -22.106 408.112 56.9585 363.891C136.023 319.669 184.968 237.543 226.383 156.681C290.387 29.07 105.903 78.3455 179.948 257.759C210.068 332.304 265.287 408.112 344.352 414.429C457.301 424.537 525.071 298.19 591.585 205.956C636.765 142.783 691.985 15.1718 764.774 2.53707C875.214 -16.415 878.979 145.31 891.528 189.531C904.078 233.753 931.688 280.501 976.868 285.555C1030.83 291.873 1070.99 237.543 1109.9 199.639C1197.75 113.723 1342.07 93.5072 1450 150.363" stroke="url(#paint0_linear_140_1888)" stroke-width="2" stroke-miterlimit="10" stroke-linecap="round" stroke-linejoin="round"/>
<defs>
<linearGradient id="paint0_linear_140_1888" x1="544.835" y1="566.8" x2="785.546" y2="-167.953" gradientUnits="userSpaceOnUse">
<stop stop-color="#313E54"/>
<stop offset="1" stop-color="#5ED6D5"/>
</linearGradient>
</defs>
</svg>
