<svg width="60" height="60" viewBox="0 0 60 60" fill="none" xmlns="http://www.w3.org/2000/svg">
<path d="M30.0074 21.7233C25.4311 21.6668 21.7023 25.3674 21.7023 29.9436C21.6741 34.5199 25.3746 38.2205 29.9791 38.2205C34.5554 38.2205 38.2277 34.5482 38.256 29.9719C38.256 25.4239 34.5837 21.7515 30.0074 21.7233Z" fill="white"/>
<path d="M50.2898 23.6441C50.2334 21.5537 50.1769 19.4351 49.8661 17.3729C49.2729 13.6724 47.126 11.243 43.4537 10.2543C41.9 9.83055 40.2899 9.7458 38.7079 9.7458C33.8209 9.6893 28.9622 9.66106 24.0752 9.6893C21.8435 9.6893 19.5836 9.68931 17.3802 10.0848C14.7249 10.565 12.578 11.8362 11.1938 14.2091C10.2334 15.7628 9.89437 17.5142 9.80962 19.3221C9.49889 25.9605 9.55539 32.5707 9.75313 39.2091C9.78138 40.4803 9.89437 41.7515 10.1769 42.9944C10.8831 46.356 12.8605 48.6159 16.1938 49.6046C17.8605 50.113 19.5554 50.1978 21.2786 50.226C26.1656 50.2825 31.0243 50.3108 35.9113 50.2825C38.143 50.2825 40.4028 50.2825 42.6062 49.8871C45.5441 49.3503 47.8322 47.8532 49.1317 45.0848C49.8379 43.6159 50.1204 42.0339 50.1486 40.452C50.2616 36.9774 50.3181 33.4746 50.4028 30C50.3746 30 50.3463 30 50.3181 30C50.2899 27.8814 50.3463 25.7628 50.2898 23.6441ZM29.9791 42.7402C22.9452 42.7402 17.2108 37.0057 17.2108 29.9718C17.2108 22.9379 22.9735 17.2034 29.9791 17.2317C37.013 17.2599 42.691 22.9379 42.7192 29.9718C42.7475 36.9774 37.013 42.7119 29.9791 42.7402ZM43.1995 19.7176C41.5893 19.7176 40.2334 18.3616 40.2334 16.7515C40.2334 15.113 41.5893 13.7571 43.2277 13.7571C44.8661 13.7571 46.1938 15.0848 46.1938 16.7232C46.1938 18.3616 44.8379 19.7176 43.1995 19.7176Z" fill="white"/>
<path d="M59.9226 21.8927C59.9226 19.1243 59.8661 16.3277 59.3294 13.5876C58.5384 9.46328 56.6175 6.0452 53.2277 3.50282C50.2616 1.32768 46.8435 0.423729 43.2277 0.225989C40.6288 0.0564972 38.03 0 35.4311 0C29.8944 0 24.3576 0.0564972 18.8209 0.112994C16.5045 0.141243 14.1881 0.367232 11.9565 1.01695C6.98475 2.45763 3.48193 5.50847 1.56102 10.3107C0.459326 13.0226 0.148591 15.8757 0.120343 18.7571C0.0355969 25.1977 -0.0209003 31.6667 0.00734829 38.1073C0.00734829 41.0452 0.0638455 43.9548 0.685314 46.8362C1.61752 51.0169 3.70791 54.4068 7.29548 56.8079C10.1486 58.7288 13.3972 59.548 16.787 59.6893C21.1655 59.8588 25.5441 59.9153 29.9509 60C29.9509 59.9717 29.9509 59.9435 29.9509 59.887C32.4367 59.887 34.8944 59.9153 37.3802 59.887C40.5441 59.8305 43.7079 59.887 46.8435 59.1808C52.5497 57.8814 56.5328 54.5763 58.5949 49.0396C59.5554 46.4407 59.8096 43.7288 59.8379 40.9887C59.8944 34.661 59.9226 28.2768 59.9226 21.8927ZM54.6684 39.1525C54.6401 41.4124 54.4424 43.6723 53.6232 45.791C51.9283 50.3672 48.6232 53.1073 43.9057 54.1808C41.335 54.774 38.7079 54.7175 36.0808 54.774C34.0469 54.8023 31.9848 54.774 29.9509 54.774C29.9509 54.8023 29.9509 54.8305 29.9509 54.8588C26.335 54.774 22.691 54.7458 19.0751 54.6045C16.2785 54.4915 13.5949 53.8136 11.222 52.2316C8.25594 50.226 6.50452 47.4294 5.74181 43.9831C5.20509 41.6102 5.17684 39.1808 5.17684 36.7514C5.14859 31.4124 5.20509 26.0734 5.26159 20.7345C5.28983 18.3333 5.54407 15.9887 6.44803 13.7288C8.0582 9.77401 10.9396 7.23164 15.0356 6.0452C16.9 5.50847 18.7927 5.33898 20.7136 5.31073C25.2898 5.25424 29.8661 5.22599 34.4706 5.22599C36.6175 5.22599 38.7927 5.28249 40.9396 5.39548C43.9339 5.56497 46.7588 6.29943 49.1881 8.13559C52.013 10.226 53.5949 13.0791 54.2446 16.4689C54.6966 18.7288 54.7249 21.0452 54.7249 23.3333C54.7531 28.5876 54.7249 33.8701 54.6684 39.1525Z" fill="white"/>
</svg>
