<svg width="60" height="61" viewBox="0 0 60 61" fill="none" xmlns="http://www.w3.org/2000/svg">
<path d="M50.7916 9.09652L50.7922 9.09719C56.3225 14.6275 59.3678 21.9702 59.347 29.7949V29.7956C59.3261 45.9467 46.2001 59.0925 30.0507 59.0925C25.147 59.0925 20.3271 57.8613 16.0502 55.5247L15.8755 55.4293L15.6831 55.48L0.731871 59.4188L4.72656 44.805L4.78157 44.6038L4.67725 44.4231C2.11146 39.98 0.775665 34.9306 0.775665 29.775C0.775665 13.6465 13.9217 0.5 30.0719 0.5C37.8979 0.5 45.2618 3.54586 50.7916 9.09652ZM6.69077 52.9237L6.46136 53.7597L7.29987 53.5396L16.4805 51.1303L17.211 51.555C17.2116 51.5553 17.2122 51.5557 17.2127 51.556C21.0888 53.8509 25.5269 55.0628 30.0719 55.0628C43.9944 55.0628 55.3173 43.7394 55.3173 29.7963C55.3173 23.0637 52.6968 16.7187 47.9348 11.935L47.9332 11.9334C43.1504 7.17231 36.8271 4.52971 30.0719 4.52971C16.1281 4.52971 4.8058 15.8531 4.78415 29.8167V29.8175C4.78415 34.5806 6.12653 39.2357 8.65973 43.2628L8.66114 43.265L9.13636 44.0118L6.69077 52.9237Z" fill="white" stroke="white"/>
<path d="M38.3853 34.063L38.3853 34.0631L38.39 34.0648C38.7097 34.181 39.7667 34.6801 40.8741 35.215C41.6267 35.5785 42.3771 35.946 42.8952 36.1997C43.1272 36.3133 43.3125 36.4041 43.4307 36.4615C43.5913 36.5441 43.7312 36.6136 43.856 36.6755C44.0392 36.7665 44.1896 36.8413 44.3245 36.917C44.5545 37.0462 44.6093 37.1123 44.6208 37.1324L44.6207 37.1325L44.6261 37.1416C44.6234 37.137 44.622 37.1346 44.6216 37.1348C44.6198 37.1356 44.6435 37.1989 44.6574 37.3684C44.6719 37.5459 44.6717 37.7874 44.6469 38.0812C44.5974 38.667 44.4528 39.4306 44.16 40.2592C43.899 40.9694 43.1158 41.7264 42.14 42.3528C41.1741 42.9728 40.1434 43.3861 39.5269 43.4781L39.5266 43.4782C38.2939 43.6631 36.7452 43.74 35.0636 43.1995L35.0602 43.1985C33.9895 42.8625 32.6269 42.4014 30.8642 41.646C23.9957 38.68 19.3446 31.9993 18.4777 30.7541C18.4205 30.6719 18.3798 30.6134 18.356 30.5812C18.3514 30.575 18.3465 30.5684 18.3412 30.5612C18.1414 30.2912 17.4233 29.321 16.7472 27.9864C16.0494 26.609 15.4191 24.887 15.4191 23.1747C15.4191 19.9636 16.9875 18.2889 17.7483 17.4766C17.8017 17.4196 17.8511 17.3668 17.8957 17.3181C18.4886 16.6909 19.1553 16.5439 19.5243 16.5439C20.0161 16.5439 20.5118 16.5441 20.9213 16.5645L20.9213 16.5645L20.9235 16.5647C21.0368 16.5698 21.1221 16.5693 21.1913 16.5689C21.3367 16.5681 21.4109 16.5677 21.5233 16.6208C21.6485 16.6799 21.8851 16.8605 22.1602 17.5282C22.2668 17.7892 22.3998 18.1159 22.5478 18.4794C22.826 19.1628 23.1572 19.9762 23.4654 20.7275C23.9293 21.8586 24.3624 22.9027 24.4729 23.1115C24.6175 23.3847 24.6689 23.6547 24.5307 23.9494C24.479 24.0486 24.4338 24.1379 24.3921 24.22C24.2188 24.562 24.1082 24.78 23.8591 25.074C23.696 25.2555 23.5291 25.4556 23.3717 25.6443C23.3387 25.6838 23.3061 25.7229 23.274 25.7612C23.0819 25.9907 22.9094 26.192 22.7574 26.344L22.7523 26.3491L22.7474 26.3543C22.7366 26.3657 22.7253 26.3776 22.7136 26.3899C22.5515 26.5604 22.3048 26.8199 22.181 27.1513C22.0286 27.559 22.0772 28.0028 22.361 28.4781C22.8 29.2456 24.3367 31.7335 26.5977 33.7554L26.5989 33.7565C29.084 35.9634 31.2584 36.8998 32.2793 37.3395C32.4536 37.4146 32.5944 37.4751 32.6972 37.5251C33.1036 37.7225 33.5052 37.8436 33.9029 37.7944C34.3205 37.7428 34.6414 37.5162 34.9049 37.2136C35.3445 36.7112 36.7878 35.0116 37.3001 34.2332C37.4868 33.9583 37.6197 33.9162 37.7088 33.9058C37.8478 33.8896 38.0398 33.9335 38.3853 34.063Z" fill="white" stroke="white"/>
</svg>
