<svg width="208" height="60" viewBox="0 0 208 60" fill="none" xmlns="http://www.w3.org/2000/svg">
<path d="M140.635 50.5887V22.6887H147.361V50.5887H140.635Z" fill="white" stroke="white"/>
<path d="M136.201 22.6887L126.162 50.6028H124.461H118.8H117.099L107.06 22.6887H113.724L121.167 43.3927L121.637 44.7016L122.108 43.3927L129.55 22.6887H136.201Z" fill="white" stroke="white"/>
<path d="M158.178 28.0624H152.576V22.6887H158.178H158.678V22.1887V14.7109H165.391V22.1887V22.6887H165.891H174.632V28.0624H165.904H165.404V28.5624V40.508C165.404 42.2908 166.137 43.5091 167.22 44.2619C168.276 44.9961 169.618 45.2571 170.821 45.2571C171.797 45.2571 172.677 45.1363 173.311 45.0162C173.494 44.9816 173.657 44.9468 173.797 44.9149L174.592 50.218C174.565 50.2281 174.536 50.2385 174.505 50.2494C174.213 50.3538 173.79 50.4939 173.271 50.6342C172.232 50.9156 170.825 51.1937 169.334 51.1937C165.412 51.1937 162.774 50.1487 161.111 48.4077C159.445 46.6624 158.678 44.1341 158.678 41.0004V28.5624V28.0624H158.178Z" fill="white" stroke="white"/>
<path d="M83.5409 42.5266H83.1895L83.0705 42.8573L80.2833 50.6028H73.1235L87.9968 9.26587H89.546H92.3695H93.2438L108.117 50.6028H100.957L98.1561 42.8566L98.0368 42.5266H97.6859H83.5409ZM85.3568 36.4693L85.1158 37.1387H85.8273H95.3996H96.1104L95.8702 36.4698L91.0909 23.1595L90.621 21.8508L90.1499 23.159L85.3568 36.4693Z" fill="white" stroke="white"/>
<path d="M178.18 36.5965C178.18 28.5154 184.746 21.957 192.831 21.957C200.916 21.957 207.495 28.516 207.495 36.5965C207.495 44.677 200.916 51.2359 192.831 51.2359C184.746 51.2359 178.18 44.6775 178.18 36.5965ZM184.535 36.709C184.535 41.2775 188.258 44.9898 192.831 44.9898C197.417 44.9898 201.126 41.277 201.126 36.709C201.126 32.1411 197.417 28.4283 192.831 28.4283C188.245 28.4283 184.535 32.1264 184.535 36.709Z" fill="white" stroke="white"/>
<path d="M144.005 9.1529L144.008 9.15289C146.459 9.14031 148.477 11.1827 148.477 13.7322C148.477 16.2793 146.461 18.3115 144.005 18.3115C141.536 18.3115 139.519 16.2652 139.519 13.7322C139.519 11.1992 141.536 9.1529 144.005 9.1529Z" fill="white" stroke="white"/>
<path d="M26.3646 13.2822C26.3646 20.3611 20.7521 26.0784 13.8628 26.0784C6.95934 26.0784 1.34717 20.3607 1.34717 13.2822C1.34717 6.21804 6.959 0.5 13.8628 0.5C20.7524 0.5 26.3646 6.21769 26.3646 13.2822Z" fill="white" stroke="white"/>
<path d="M58.9106 43.6595C58.9106 52.3277 52.0315 59.326 43.5852 59.326C35.1395 59.326 28.2737 52.3282 28.2737 43.6595C28.2737 34.9907 35.1395 27.9929 43.5852 27.9929C52.045 27.9929 58.9106 34.991 58.9106 43.6595Z" fill="white" stroke="white"/>
<path d="M53.2773 13.2821C53.2773 18.7571 48.9318 23.194 43.5852 23.194C38.2523 23.194 33.9069 18.7712 33.9069 13.2821C33.9069 7.80752 38.2519 3.38428 43.5852 3.38428C48.9327 3.38428 53.2773 7.80796 53.2773 13.2821Z" fill="white" stroke="white"/>
<path d="M20.7315 43.6593C20.7315 47.5574 17.6404 50.6868 13.8629 50.6868C10.0854 50.6868 6.99426 47.5574 6.99426 43.6593C6.99426 39.7612 10.0854 36.6318 13.8629 36.6318C17.6398 36.6318 20.7315 39.7747 20.7315 43.6593Z" fill="white" stroke="white"/>
</svg>
