<svg width="138" height="65" viewBox="0 0 138 65" fill="none" xmlns="http://www.w3.org/2000/svg">
<path d="M0 0.62808C0.917962 0.434824 1.93255 0.289883 2.99546 0.144941C4.10667 0.0483138 5.16958 0 6.2808 0C7.44033 0 8.59986 0.0966276 9.71108 0.338197C10.8223 0.531452 11.8369 0.966276 12.7065 1.59436C13.5762 2.22244 14.3009 3.1404 14.8807 4.25162C15.4604 5.41115 15.702 6.90888 15.702 8.7448C15.702 10.4358 15.4604 11.8369 14.9773 12.9964C14.4941 14.1559 13.8661 15.1222 13.093 15.8469C12.32 16.5716 11.4021 17.1031 10.3875 17.4413C9.37288 17.7795 8.30997 17.9244 7.19876 17.9244C7.10213 17.9244 6.95719 17.9244 6.71562 17.9244C6.47405 17.9244 6.23248 17.9244 5.99091 17.9244C5.74934 17.9244 5.50777 17.8761 5.2662 17.8761C5.02464 17.8278 4.83138 17.8278 4.73475 17.7795V26.9108H0V0.62808ZM4.78307 13.5279C4.92801 13.5762 5.21789 13.6245 5.65272 13.6728C6.08754 13.7211 6.37742 13.7211 6.52236 13.7211C7.10213 13.7211 7.63358 13.6245 8.11672 13.4796C8.59986 13.3346 9.083 13.0447 9.46951 12.7065C9.85602 12.32 10.1942 11.8369 10.3875 11.2088C10.629 10.5807 10.7257 9.75939 10.7257 8.7448C10.7257 7.92347 10.629 7.19876 10.3875 6.61899C10.1942 6.03923 9.90433 5.55609 9.51782 5.21789C9.13131 4.87969 8.7448 4.63813 8.26166 4.49318C7.77852 4.34824 7.29538 4.25162 6.76393 4.25162C5.99091 4.25162 5.31452 4.29993 4.83138 4.44487V13.5279H4.78307Z" fill="white"/>
<path d="M17.7794 11.9336H103.005V15.3639H17.7794V11.9336Z" fill="white"/>
<path d="M106.387 0.386475H119.673V4.78303H111.17V11.3054H118.9V15.702H111.17V22.5142H119.818V26.9108H106.387V0.386475Z" fill="white"/>
<path d="M126.051 17.2479L121.509 7.97168H126.824L128.756 12.4649L129.481 14.8806L130.302 12.4649L132.283 7.97168H137.211L132.67 17.103L137.549 26.959H132.38L130.061 22.031L129.239 19.3254L128.37 22.031L126.051 26.959H121.171L126.051 17.2479Z" fill="white"/>
<path d="M0 38.7478C0.62808 38.5546 1.25616 38.4579 1.98087 38.4096C2.70557 38.3613 3.33365 38.313 4.01005 38.313C4.78307 38.313 5.55609 38.4096 6.2808 38.5546C7.05382 38.7478 7.73021 39.0377 8.30998 39.5208C8.93806 40.004 9.42119 40.632 9.75939 41.4051C10.1459 42.2264 10.3392 43.241 10.3392 44.4972C10.3392 45.705 10.1459 46.7196 9.8077 47.5892C9.46951 48.4589 8.98637 49.1353 8.4066 49.6667C7.82684 50.1982 7.15044 50.5847 6.37742 50.8263C5.6044 51.0678 4.83138 51.1645 4.01005 51.1645C3.91342 51.1645 3.81679 51.1645 3.62354 51.1645C3.43028 51.1645 3.28534 51.1645 3.09208 51.1645C2.89883 51.1645 2.70557 51.1645 2.51232 51.1161C2.31906 51.1161 2.22244 51.0678 2.12581 51.0678V58.7497H0V38.7478ZM4.10667 40.2939C3.72016 40.2939 3.33365 40.2939 2.99546 40.3422C2.65726 40.3905 2.36738 40.3905 2.12581 40.4871V49.087C2.22244 49.1353 2.31906 49.1353 2.464 49.1353C2.60895 49.1353 2.8022 49.1353 2.94714 49.1836C3.1404 49.1836 3.28534 49.1836 3.43028 49.1836C3.57522 49.1836 3.72016 49.1836 3.76848 49.1836C4.29993 49.1836 4.83138 49.1353 5.31452 48.9903C5.79766 48.8454 6.2808 48.6038 6.61899 48.2656C7.0055 47.9274 7.29539 47.4443 7.53695 46.8162C7.77852 46.1881 7.87515 45.4634 7.87515 44.5455C7.87515 43.7241 7.77852 43.0477 7.53695 42.5163C7.29539 41.9848 7.0055 41.55 6.66731 41.2118C6.32911 40.8736 5.89428 40.6321 5.41115 40.5354C5.12126 40.3422 4.63813 40.2939 4.10667 40.2939Z" fill="white"/>
<path d="M11.9332 45.1737C12.513 44.8355 13.1894 44.5456 13.9624 44.3524C14.7837 44.1591 15.605 44.0625 16.4747 44.0625C17.296 44.0625 17.9241 44.1591 18.4072 44.4007C18.8904 44.6423 19.2769 44.9805 19.5668 45.367C19.8567 45.8018 20.0499 46.2366 20.0982 46.7681C20.1949 47.2995 20.2432 47.831 20.2432 48.4107C20.2432 49.5703 20.1949 50.6815 20.1465 51.7927C20.0982 52.9039 20.0499 53.9185 20.0499 54.8848C20.0499 55.6095 20.0982 56.2859 20.1465 56.914C20.1949 57.5421 20.2915 58.1218 20.4364 58.7016H18.8421L18.3589 57.0106H18.2623C17.9724 57.4937 17.5376 57.9286 17.0061 58.3151C16.4747 58.7016 15.7017 58.8465 14.7837 58.8465C13.7691 58.8465 12.8995 58.5083 12.2714 57.7836C11.595 57.0589 11.3051 56.0443 11.3051 54.7882C11.3051 53.9668 11.4501 53.2904 11.7399 52.7107C12.0298 52.1309 12.4163 51.6961 12.8995 51.3579C13.3826 51.0197 14.0107 50.7781 14.6871 50.6332C15.3635 50.4882 16.1365 50.4399 17.0061 50.4399C17.1994 50.4399 17.3927 50.4399 17.5859 50.4399C17.7792 50.4399 17.9724 50.4399 18.1657 50.4882C18.214 49.9085 18.2623 49.377 18.2623 48.8939C18.2623 47.7827 18.1174 47.0096 17.7792 46.5748C17.441 46.14 16.8612 45.8984 15.9916 45.8984C15.4601 45.8984 14.8803 45.9951 14.2523 46.14C13.6242 46.2849 13.0927 46.5265 12.6579 46.7681L11.9332 45.1737ZM18.1174 52.1309C17.9241 52.1309 17.7309 52.0826 17.5376 52.0826C17.3443 52.0826 17.1511 52.0826 16.9578 52.0826C16.523 52.0826 16.0399 52.1309 15.605 52.1792C15.1702 52.2758 14.7837 52.3725 14.4455 52.5657C14.1073 52.759 13.8174 53.0006 13.6242 53.3388C13.4309 53.677 13.3343 54.0635 13.3343 54.5949C13.3343 55.3679 13.5275 55.9477 13.9141 56.3825C14.3006 56.8173 14.7837 57.0106 15.3635 57.0106C16.1848 57.0106 16.7646 56.8173 17.1994 56.4308C17.6342 56.0443 17.9241 55.6095 18.1174 55.1747V52.1309Z" fill="white"/>
<path d="M31.5972 57.9768C31.114 58.3633 30.5826 58.6049 29.9545 58.7981C29.3264 58.9914 28.6983 59.0397 28.022 59.0397C27.104 59.0397 26.331 58.8464 25.7029 58.5083C25.0748 58.1701 24.5434 57.6386 24.1568 56.9622C23.7703 56.2858 23.4805 55.5128 23.2872 54.5465C23.0939 53.6286 22.9973 52.5657 22.9973 51.4544C22.9973 48.9904 23.4321 47.1062 24.3018 45.85C25.1714 44.5456 26.4276 43.9175 28.0703 43.9175C28.8433 43.9175 29.4714 43.9658 30.0028 44.1107C30.5343 44.2557 31.0174 44.4006 31.4039 44.6422L30.8242 46.4781C30.0511 46.0433 29.2298 45.8017 28.3118 45.8017C27.2972 45.8017 26.4759 46.2365 25.9445 47.1545C25.413 48.0725 25.1714 49.5219 25.1714 51.4544C25.1714 52.2275 25.2198 53.0005 25.3647 53.6769C25.4613 54.3533 25.6546 54.9813 25.9445 55.4645C26.2343 55.9959 26.5725 56.3824 26.959 56.6723C27.3939 56.9622 27.9253 57.1071 28.5534 57.1071C29.0365 57.1071 29.5197 57.0105 29.9545 56.8656C30.3893 56.6723 30.7275 56.4791 31.0174 56.2375L31.5972 57.9768Z" fill="white"/>
<path d="M41.3566 57.9768C40.8734 58.3633 40.342 58.6049 39.7139 58.7981C39.0858 58.9914 38.4577 59.0397 37.7813 59.0397C36.8634 59.0397 36.0904 58.8464 35.4623 58.5083C34.8342 58.1701 34.3028 57.6386 33.9162 56.9622C33.5297 56.2858 33.2399 55.5128 33.0466 54.5465C32.8533 53.6286 32.7567 52.5657 32.7567 51.4544C32.7567 48.9904 33.1915 47.1062 34.0612 45.85C34.9308 44.5456 36.187 43.9175 37.8297 43.9175C38.6027 43.9175 39.2308 43.9658 39.7622 44.1107C40.2937 44.2557 40.7768 44.4006 41.1633 44.6422L40.5835 46.4781C39.8105 46.0433 38.9892 45.8017 38.0712 45.8017C37.0566 45.8017 36.2353 46.2365 35.7039 47.1545C35.1724 48.0725 34.9308 49.5219 34.9308 51.4544C34.9308 52.2275 34.9791 53.0005 35.1241 53.6769C35.2207 54.3533 35.414 54.9813 35.7039 55.4645C35.9937 55.9959 36.3319 56.3824 36.7184 56.6723C37.1533 56.9622 37.6847 57.1071 38.3128 57.1071C38.7959 57.1071 39.2791 57.0105 39.7139 56.8656C40.1487 56.6723 40.4869 56.4791 40.7768 56.2375L41.3566 57.9768Z" fill="white"/>
<path d="M42.5161 51.503C42.5161 48.8941 42.9509 47.0098 43.8688 45.802C44.7868 44.5941 46.043 43.9661 47.6856 43.9661C49.4732 43.9661 50.7777 44.5941 51.5991 45.8503C52.4204 47.1065 52.8552 48.9907 52.8552 51.5513C52.8552 54.1603 52.4204 56.0928 51.5024 57.3007C50.5845 58.5085 49.3283 59.1366 47.6856 59.1366C45.898 59.1366 44.5935 58.5085 43.7722 57.2524C42.9509 55.9479 42.5161 54.0637 42.5161 51.503ZM44.6902 51.503C44.6902 52.3727 44.7385 53.0974 44.8351 53.8221C44.9317 54.4985 45.125 55.1266 45.3666 55.6097C45.6081 56.0928 45.898 56.4793 46.2845 56.7692C46.671 57.0591 47.1059 57.204 47.6856 57.204C48.7002 57.204 49.4249 56.7692 49.9564 55.8513C50.4395 54.9816 50.7294 53.5322 50.7294 51.503C50.7294 50.6817 50.6811 49.9087 50.5845 49.2323C50.4878 48.5076 50.2946 47.9278 50.053 47.4447C49.8114 46.9615 49.5216 46.575 49.135 46.2851C48.7485 45.9952 48.2654 45.8503 47.7339 45.8503C46.7677 45.8503 45.9946 46.2851 45.5115 47.2031C44.9317 48.0727 44.6902 49.5222 44.6902 51.503Z" fill="white"/>
<path d="M55.2708 49.4736H60.9718V51.4545H55.2708V49.4736Z" fill="white"/>
<path d="M64.1605 38.5063H73.1469V40.4872H66.3346V47.3478H72.6154V49.3286H66.3346V56.7207H73.2918V58.7015H64.1605V38.5063Z" fill="white"/>
<path d="M79.3314 51.3092L75.5146 44.2554H77.9786L80.1044 48.362L80.6842 49.9564L81.3123 48.362L83.4864 44.2554H85.7571L81.9404 51.1642L85.9987 58.6529H83.6313L81.2156 54.1114L80.5876 52.3721L79.9112 54.1114L77.4955 58.6529H75.2247L79.3314 51.3092Z" fill="white"/>
<path d="M88.2692 44.3043H89.7186L90.0568 45.8503H90.1534C90.8781 44.5941 91.9893 43.9661 93.4871 43.9661C94.9848 43.9661 96.1443 44.5458 96.9173 45.657C97.6904 46.7683 98.0769 48.6525 98.0769 51.2131C98.0769 52.421 97.9319 53.5322 97.6904 54.4985C97.4488 55.4648 97.0623 56.2861 96.6275 56.9625C96.1443 57.6389 95.6129 58.1703 94.9365 58.5085C94.2601 58.8467 93.5354 59.04 92.714 59.04C92.1343 59.04 91.6994 58.9917 91.4096 58.9433C91.0714 58.895 90.7332 58.7501 90.3467 58.5085V64.4511H88.2692V44.3043ZM90.3467 56.431C90.6365 56.6726 90.9264 56.8659 91.2646 56.9625C91.6028 57.1074 92.0376 57.1557 92.6174 57.1557C93.632 57.1557 94.4533 56.6243 95.0331 55.6097C95.6129 54.5951 95.9027 53.0974 95.9027 51.1648C95.9027 50.3435 95.8544 49.6188 95.7578 48.9907C95.6612 48.3143 95.4679 47.7829 95.2747 47.2997C95.0331 46.8166 94.7432 46.4784 94.405 46.1885C94.0668 45.9469 93.632 45.802 93.1005 45.802C91.6994 45.802 90.7815 46.6716 90.395 48.3626V56.431H90.3467Z" fill="white"/>
<path d="M100.831 44.3041H102.28L102.667 45.8501H102.763C103.053 45.2703 103.391 44.8355 103.826 44.5456C104.261 44.2074 104.792 44.0625 105.42 44.0625C105.855 44.0625 106.338 44.1591 106.918 44.3041L106.532 46.4299C106.049 46.2366 105.565 46.1883 105.227 46.1883C104.599 46.1883 104.116 46.3816 103.73 46.7198C103.343 47.058 103.101 47.5411 102.957 48.1692V58.7982H100.879V44.3041H100.831Z" fill="white"/>
<path d="M117.354 57.7355C116.871 58.1703 116.291 58.5085 115.615 58.7018C114.89 58.9433 114.165 59.04 113.344 59.04C112.426 59.04 111.653 58.8467 110.977 58.5085C110.3 58.1703 109.769 57.6389 109.334 56.9625C108.899 56.2861 108.561 55.5131 108.368 54.5951C108.174 53.6771 108.078 52.6142 108.078 51.503C108.078 49.039 108.513 47.1548 109.43 45.8986C110.348 44.5941 111.605 43.9661 113.247 43.9661C113.779 43.9661 114.31 44.0144 114.842 44.1593C115.373 44.3043 115.856 44.5458 116.291 44.9807C116.726 45.3672 117.064 45.9469 117.306 46.6716C117.547 47.3963 117.692 48.3626 117.692 49.5222C117.692 49.8603 117.692 50.1985 117.644 50.5851C117.596 50.9716 117.596 51.3581 117.547 51.7446H110.204C110.204 52.5659 110.252 53.3389 110.397 54.0153C110.542 54.6917 110.735 55.2715 111.025 55.7546C111.315 56.2378 111.701 56.576 112.136 56.8658C112.571 57.1074 113.151 57.2524 113.827 57.2524C114.358 57.2524 114.842 57.1557 115.373 56.9625C115.905 56.7692 116.291 56.5277 116.533 56.2861L117.354 57.7355ZM115.711 50.0053C115.76 48.5559 115.566 47.493 115.083 46.8166C114.648 46.1402 114.02 45.802 113.247 45.802C112.378 45.802 111.653 46.1402 111.121 46.8166C110.59 47.493 110.3 48.5559 110.204 50.0053H115.711Z" fill="white"/>
<path d="M120.398 56.3341C120.784 56.5757 121.219 56.769 121.751 56.9139C122.282 57.0588 122.813 57.1555 123.393 57.1555C124.021 57.1555 124.553 57.0105 124.988 56.6723C125.422 56.3341 125.664 55.851 125.664 55.1263C125.664 54.5465 125.519 54.0151 125.277 53.6286C124.988 53.242 124.649 52.9039 124.263 52.5657C123.828 52.2758 123.393 51.9859 122.91 51.696C122.427 51.4544 121.992 51.1162 121.557 50.778C121.122 50.3915 120.784 50.005 120.543 49.4736C120.253 48.9904 120.156 48.3624 120.156 47.5893C120.156 46.3815 120.494 45.4152 121.171 44.8354C121.847 44.2074 122.765 43.9175 123.973 43.9175C124.746 43.9175 125.422 43.9658 126.002 44.1107C126.582 44.2557 127.065 44.4489 127.5 44.6905L126.968 46.4298C126.582 46.2365 126.195 46.0916 125.712 45.9467C125.229 45.8017 124.746 45.7534 124.263 45.7534C123.586 45.7534 123.055 45.8983 122.765 46.1882C122.427 46.4781 122.282 46.9129 122.282 47.541C122.282 48.0242 122.427 48.4107 122.668 48.7489C122.958 49.0871 123.297 49.3769 123.683 49.6668C124.118 49.9567 124.553 50.2466 125.036 50.5365C125.519 50.8264 125.954 51.1645 126.389 51.5511C126.823 51.9376 127.162 52.4207 127.403 52.9522C127.693 53.4836 127.79 54.2083 127.79 55.0297C127.79 55.5611 127.693 56.0926 127.548 56.5757C127.355 57.0588 127.113 57.4937 126.775 57.8319C126.437 58.1701 125.954 58.4599 125.471 58.7015C124.939 58.8948 124.311 59.0397 123.635 59.0397C122.765 59.0397 122.04 58.9431 121.461 58.7981C120.833 58.6532 120.349 58.4116 119.915 58.1701L120.398 56.3341Z" fill="white"/>
<path d="M130.157 56.3341C130.544 56.5757 130.978 56.769 131.51 56.9139C132.041 57.0588 132.573 57.1555 133.153 57.1555C133.781 57.1555 134.312 57.0105 134.747 56.6723C135.182 56.3341 135.423 55.851 135.423 55.1263C135.423 54.5465 135.278 54.0151 135.037 53.6286C134.747 53.242 134.409 52.9039 134.022 52.5657C133.587 52.2758 133.153 51.9859 132.669 51.696C132.186 51.4544 131.752 51.1162 131.317 50.778C130.882 50.3915 130.544 50.005 130.302 49.4736C130.012 48.9904 129.916 48.3624 129.916 47.5893C129.916 46.3815 130.254 45.4152 130.93 44.8354C131.607 44.2074 132.525 43.9175 133.732 43.9175C134.505 43.9175 135.182 43.9658 135.762 44.1107C136.341 44.2557 136.824 44.4489 137.259 44.6905L136.728 46.4298C136.341 46.2365 135.955 46.0916 135.472 45.9467C134.989 45.8017 134.505 45.7534 134.022 45.7534C133.346 45.7534 132.814 45.8983 132.525 46.1882C132.186 46.4781 132.041 46.9129 132.041 47.541C132.041 48.0242 132.186 48.4107 132.428 48.7489C132.718 49.0871 133.056 49.3769 133.442 49.6668C133.877 49.9567 134.312 50.2466 134.795 50.5365C135.278 50.8264 135.713 51.1645 136.148 51.5511C136.583 51.9376 136.921 52.4207 137.163 52.9522C137.453 53.4836 137.549 54.2083 137.549 55.0297C137.549 55.5611 137.453 56.0926 137.308 56.5757C137.114 57.0588 136.873 57.4937 136.535 57.8319C136.196 58.1701 135.713 58.4599 135.23 58.7015C134.699 58.8948 134.071 59.0397 133.394 59.0397C132.525 59.0397 131.8 58.9431 131.22 58.7981C130.592 58.6532 130.109 58.4116 129.674 58.1701L130.157 56.3341Z" fill="white"/>
</svg>
