<svg width="35" height="35" viewBox="0 0 35 35" fill="none" xmlns="http://www.w3.org/2000/svg">
<path d="M17.2365 12.4781C14.6078 12.4457 12.4659 14.5714 12.4659 17.2C12.4497 19.8287 14.5753 21.9544 17.2202 21.9544C19.8489 21.9544 21.9584 19.8449 21.9746 17.2163C21.9746 14.6038 19.8652 12.4944 17.2365 12.4781Z" fill="#313E54"/>
<path d="M28.887 13.5818C28.8545 12.381 28.8221 11.164 28.6436 9.97952C28.3028 7.85386 27.0696 6.45839 24.9602 5.89046C24.0677 5.64707 23.1428 5.59839 22.2342 5.59839C19.427 5.56594 16.636 5.54971 13.8289 5.56594C12.547 5.56594 11.2489 5.56594 9.98322 5.79311C8.45794 6.06895 7.22473 6.79914 6.42964 8.16216C5.87794 9.05461 5.68322 10.0607 5.63454 11.0991C5.45605 14.9123 5.48851 18.7093 5.60209 22.5225C5.61832 23.2527 5.68322 23.9829 5.84549 24.6969C6.25115 26.6278 7.387 27.9259 9.30171 28.4939C10.2591 28.7859 11.2327 28.8346 12.2225 28.8508C15.0296 28.8833 17.8206 28.8995 20.6277 28.8833C21.9096 28.8833 23.2077 28.8833 24.4734 28.6561C26.1609 28.3478 27.4753 27.4878 28.2217 25.8976C28.6274 25.0539 28.7896 24.1452 28.8059 23.2365C28.8708 21.2406 28.9032 19.2286 28.9519 17.2327C28.9357 17.2327 28.9194 17.2327 28.9032 17.2327C28.887 16.0157 28.9194 14.7988 28.887 13.5818ZM17.2202 24.5508C13.1798 24.5508 9.88586 21.2569 9.88586 17.2165C9.88586 13.1761 13.196 9.88216 17.2202 9.89839C21.2606 9.91461 24.5221 13.1761 24.5383 17.2165C24.5545 21.2406 21.2606 24.5346 17.2202 24.5508ZM24.8142 11.3263C23.8892 11.3263 23.1104 10.5474 23.1104 9.62254C23.1104 8.68141 23.8892 7.90254 24.8304 7.90254C25.7715 7.90254 26.5342 8.66518 26.5342 9.60631C26.5342 10.5474 25.7553 11.3263 24.8142 11.3263Z" fill="#313E54"/>
<path d="M34.4204 12.5755C34.4204 10.9853 34.388 9.37886 34.0797 7.8049C33.6253 5.43585 32.5219 3.47245 30.5748 2.01207C28.871 0.762641 26.9076 0.243396 24.8306 0.129811C23.3378 0.0324528 21.845 0 20.3521 0C17.1718 0 13.9914 0.0324528 10.811 0.0649056C9.48044 0.081132 8.14988 0.210943 6.86799 0.584151C4.01214 1.4117 2.00007 3.16415 0.896673 5.92264C0.263843 7.48037 0.085353 9.11924 0.0691266 10.7743C0.0204474 14.474 -0.0120054 18.1898 0.00422097 21.8894C0.00422097 23.577 0.0366738 25.2483 0.393655 26.9034C0.929126 29.3049 2.12988 31.2521 4.19063 32.6313C5.8295 33.7347 7.69554 34.2053 9.64271 34.2864C12.1578 34.3838 14.6729 34.4162 17.2042 34.4649C17.2042 34.4487 17.2042 34.4324 17.2042 34.4C18.6321 34.4 20.0438 34.4162 21.4718 34.4C23.2891 34.3675 25.1065 34.4 26.9076 33.9943C30.1853 33.2479 32.4733 31.3494 33.6578 28.169C34.2095 26.6762 34.3555 25.1185 34.3718 23.5445C34.4042 19.9098 34.4204 16.2426 34.4204 12.5755ZM31.4023 22.4898C31.3861 23.7879 31.2725 25.086 30.8019 26.303C29.8284 28.9317 27.9299 30.5056 25.2201 31.1222C23.7435 31.463 22.2344 31.4305 20.7253 31.463C19.557 31.4792 18.3725 31.463 17.2042 31.463C17.2042 31.4792 17.2042 31.4955 17.2042 31.5117C15.1272 31.463 13.034 31.4468 10.957 31.3656C9.35063 31.3007 7.80912 30.9113 6.44611 30.0026C4.74233 28.8505 3.73629 27.2441 3.29818 25.2645C2.98988 23.9015 2.97365 22.506 2.97365 21.1106C2.95743 18.0438 2.98988 14.977 3.02233 11.9102C3.03856 10.5309 3.1846 9.18415 3.70384 7.88603C4.62875 5.61434 6.28384 4.15396 8.63667 3.47245C9.70761 3.16415 10.7948 3.06679 11.8982 3.05056C14.5269 3.01811 17.1555 3.00189 19.8004 3.00189C21.0336 3.00189 22.2831 3.03434 23.5163 3.09924C25.2363 3.1966 26.8589 3.61849 28.2544 4.6732C29.877 5.87396 30.7857 7.51283 31.1589 9.46C31.4185 10.7581 31.4348 12.0887 31.4348 13.403C31.451 16.4211 31.4348 19.4555 31.4023 22.4898Z" fill="#313E54"/>
</svg>
