<svg width="119" height="35" viewBox="0 0 119 35" fill="none" xmlns="http://www.w3.org/2000/svg">
<path d="M80.5195 28.8462V13.2456H83.9579V28.8462H80.5195Z" fill="#313E54" stroke="#313E54"/>
<path d="M77.4567 13.2456L71.8432 28.8543H71.0159H67.7643H66.937L61.3235 13.2456H64.6991L68.9235 24.9975L69.3941 26.3064L69.8646 24.9975L74.0891 13.2456H77.4567Z" fill="#313E54" stroke="#313E54"/>
<path d="M90.3837 15.9066H87.3789V13.2454H90.3837H90.8837V12.7454V8.66284H94.3141V12.7454V13.2454H94.8141H99.6227V15.9066H94.822H94.322V16.4066V23.2682C94.322 24.3595 94.7751 25.1256 95.4563 25.5993C96.1107 26.0543 96.9294 26.209 97.6464 26.209C98.2239 26.209 98.7428 26.1376 99.1161 26.0669C99.1375 26.0629 99.1584 26.0588 99.1789 26.0548L99.576 28.7036C99.4232 28.7556 99.2273 28.8175 98.9982 28.8795C98.4122 29.0381 97.6236 29.1935 96.792 29.1935C94.5755 29.1935 93.1248 28.6036 92.2228 27.659C91.3166 26.7101 90.8837 25.3195 90.8837 23.5511V16.4066V15.9066H90.3837Z" fill="#313E54" stroke="#313E54"/>
<path d="M47.5107 24.2153H47.1592L47.0402 24.546L45.4899 28.8544H41.8294L50.2197 5.5354H50.9601H52.5819H52.9346L61.3249 28.8544H57.6639L56.106 24.5452L55.9866 24.2153H55.6357H47.5107ZM48.3535 20.8766L48.1125 21.546H48.824H54.3224H55.0332L54.793 20.877L52.0477 13.2314L51.5778 11.9227L51.1067 13.2309L48.3535 20.8766Z" fill="#313E54" stroke="#313E54"/>
<path d="M102.087 21.0218C102.087 16.4976 105.763 12.8254 110.29 12.8254C114.817 12.8254 118.5 16.4981 118.5 21.0218C118.5 25.5454 114.817 29.2181 110.29 29.2181C105.763 29.2181 102.087 25.5459 102.087 21.0218ZM105.312 21.0864C105.312 23.8286 107.546 26.0558 110.29 26.0558C113.042 26.0558 115.267 23.828 115.267 21.0864C115.267 18.3448 113.042 16.117 110.29 16.117C107.538 16.117 105.312 18.3361 105.312 21.0864Z" fill="#313E54" stroke="#313E54"/>
<path d="M82.2429 5.47026L82.2454 5.47025C83.5303 5.46365 84.5989 6.53602 84.5989 7.88788C84.5989 9.23735 83.532 10.3055 82.2429 10.3055C80.9458 10.3055 79.8789 9.22927 79.8789 7.88788C79.8789 6.54649 80.9458 5.47025 82.2429 5.47026Z" fill="#313E54" stroke="#313E54"/>
<path d="M14.4555 7.62948C14.4555 11.5826 11.3225 14.767 7.4871 14.767C3.64345 14.767 0.510742 11.5823 0.510742 7.62948C0.510742 3.6851 3.6431 0.5 7.4871 0.5C11.3228 0.5 14.4555 3.68475 14.4555 7.62948Z" fill="#313E54" stroke="#313E54"/>
<path d="M33.1512 25.0788C33.1512 29.9446 29.2909 33.8651 24.5609 33.8651C19.8314 33.8651 15.9785 29.9452 15.9785 25.0788C15.9785 20.2124 19.8314 16.2925 24.5609 16.2925C29.2986 16.2925 33.1512 20.2127 33.1512 25.0788Z" fill="#313E54" stroke="#313E54"/>
<path d="M29.915 7.62939C29.915 10.6613 27.5097 13.1101 24.5605 13.1101C21.6191 13.1101 19.2139 10.6694 19.2139 7.62939C19.2139 4.59794 21.6187 2.15674 24.5605 2.15674C27.5105 2.15674 29.915 4.59838 29.915 7.62939Z" fill="#313E54" stroke="#313E54"/>
<path d="M11.2202 25.0785C11.2202 27.2042 9.53587 28.9025 7.48753 28.9025C5.43918 28.9025 3.75488 27.2042 3.75488 25.0785C3.75488 22.9529 5.43918 21.2546 7.48753 21.2546C9.53527 21.2546 11.2202 22.9604 11.2202 25.0785Z" fill="#313E54" stroke="#313E54"/>
</svg>
