<svg width="126" height="60" viewBox="0 0 126 60" fill="none" xmlns="http://www.w3.org/2000/svg">
<path d="M0 0.575342C0.840885 0.398314 1.77028 0.265543 2.74394 0.132771C3.76185 0.0442571 4.73551 0 5.75342 0C6.8156 0 7.87777 0.0885142 8.89568 0.3098C9.91359 0.486828 10.843 0.885142 11.6396 1.46048C12.4362 2.03583 13.1001 2.87671 13.6312 3.89463C14.1623 4.9568 14.3836 6.32877 14.3836 8.01054C14.3836 9.55954 14.1623 10.843 13.7197 11.9052C13.2771 12.9673 12.7018 13.8525 11.9937 14.5163C11.2856 15.1802 10.4447 15.667 9.51528 15.9768C8.58588 16.2866 7.61222 16.4194 6.59431 16.4194C6.5058 16.4194 6.37302 16.4194 6.15174 16.4194C5.93045 16.4194 5.70917 16.4194 5.48788 16.4194C5.2666 16.4194 5.04531 16.3751 4.82402 16.3751C4.60274 16.3309 4.42571 16.3309 4.3372 16.2866V24.6512H0V0.575342ZM4.38145 12.392C4.51423 12.4362 4.77977 12.4805 5.17808 12.5248C5.5764 12.569 5.84194 12.569 5.97471 12.569C6.5058 12.569 6.99262 12.4805 7.43519 12.3477C7.87777 12.215 8.32034 11.9494 8.67439 11.6396C9.02845 11.2856 9.33825 10.843 9.51528 10.2676C9.73656 9.69231 9.82508 8.93994 9.82508 8.01054C9.82508 7.25817 9.73656 6.59431 9.51528 6.06322C9.33825 5.53214 9.07271 5.08957 8.71865 4.77977C8.36459 4.46997 8.01054 4.24868 7.56797 4.11591C7.12539 3.98314 6.68282 3.89463 6.196 3.89463C5.48788 3.89463 4.86828 3.93888 4.42571 4.07165V12.392H4.38145Z" fill="url(#paint0_linear_140_1601)"/>
<path d="M16.2866 10.9314H94.3562V14.0737H16.2866V10.9314Z" fill="url(#paint1_linear_140_1601)"/>
<path d="M97.4542 0.354004H109.625V4.3814H101.836V10.3561H108.917V14.3835H101.836V20.6238H109.758V24.6512H97.4542V0.354004Z" fill="url(#paint2_linear_140_1601)"/>
<path d="M115.467 15.7999L111.307 7.30249H116.175L117.945 11.4184L118.609 13.6313L119.362 11.4184L121.176 7.30249H125.69L121.53 15.6671L126 24.6955H121.265L119.14 20.1813L118.388 17.7029L117.591 20.1813L115.467 24.6955H110.997L115.467 15.7999Z" fill="url(#paint3_linear_140_1601)"/>
<path d="M0 35.4943C0.575342 35.3172 1.15068 35.2287 1.81454 35.1845C2.4784 35.1402 3.05374 35.0959 3.67334 35.0959C4.38145 35.0959 5.08957 35.1845 5.75342 35.3172C6.46154 35.4943 7.08114 35.7598 7.61222 36.2024C8.18757 36.6449 8.63014 37.2203 8.93994 37.9284C9.29399 38.6808 9.47102 39.6102 9.47102 40.7609C9.47102 41.8673 9.29399 42.7967 8.98419 43.5933C8.67439 44.3899 8.23182 45.0095 7.70074 45.4964C7.16965 45.9832 6.55005 46.3372 5.84194 46.5585C5.13382 46.7798 4.42571 46.8683 3.67334 46.8683C3.58483 46.8683 3.49631 46.8683 3.31928 46.8683C3.14225 46.8683 3.00948 46.8683 2.83246 46.8683C2.65543 46.8683 2.4784 46.8683 2.30137 46.8241C2.12434 46.8241 2.03583 46.7798 1.94731 46.7798V53.8167H0V35.4943ZM3.76185 36.9105C3.4078 36.9105 3.05374 36.9105 2.74394 36.9547C2.43414 36.999 2.1686 36.999 1.94731 37.0875V44.9653C2.03583 45.0095 2.12434 45.0095 2.25711 45.0095C2.38988 45.0095 2.56691 45.0095 2.69968 45.0538C2.87671 45.0538 3.00948 45.0538 3.14225 45.0538C3.27503 45.0538 3.4078 45.0538 3.45205 45.0538C3.93888 45.0538 4.42571 45.0095 4.86828 44.8768C5.31085 44.744 5.75342 44.5227 6.06322 44.2129C6.41728 43.9031 6.68282 43.4605 6.90411 42.8852C7.12539 42.3099 7.21391 41.646 7.21391 40.8051C7.21391 40.0527 7.12539 39.4331 6.90411 38.9463C6.68282 38.4595 6.41728 38.0612 6.10748 37.7514C5.79768 37.4416 5.39937 37.2203 4.9568 37.1318C4.69125 36.9547 4.24868 36.9105 3.76185 36.9105Z" fill="#BABABA"/>
<path d="M10.9315 41.3805C11.4626 41.0707 12.0822 40.8051 12.7903 40.6281C13.5427 40.4511 14.295 40.3625 15.0917 40.3625C15.844 40.3625 16.4194 40.4511 16.8619 40.6724C17.3045 40.8936 17.6586 41.2034 17.9241 41.5575C18.1896 41.9558 18.3667 42.3541 18.4109 42.8409C18.4994 43.3278 18.5437 43.8146 18.5437 44.3457C18.5437 45.4079 18.4994 46.4258 18.4552 47.4437C18.4109 48.4616 18.3667 49.391 18.3667 50.2761C18.3667 50.94 18.4109 51.5596 18.4552 52.1349C18.4994 52.7103 18.588 53.2414 18.7207 53.7725H17.2602L16.8177 52.2235H16.7292C16.4636 52.666 16.0653 53.0643 15.5785 53.4184C15.0917 53.7725 14.3835 53.9052 13.5427 53.9052C12.6133 53.9052 11.8166 53.5954 11.2413 52.9316C10.6217 52.2677 10.3561 51.3383 10.3561 50.1876C10.3561 49.4353 10.4889 48.8157 10.7545 48.2846C11.02 47.7535 11.3741 47.3552 11.8166 47.0454C12.2592 46.7356 12.8345 46.5143 13.4541 46.3815C14.0737 46.2487 14.7819 46.2045 15.5785 46.2045C15.7555 46.2045 15.9325 46.2045 16.1096 46.2045C16.2866 46.2045 16.4636 46.2045 16.6406 46.2487C16.6849 45.7177 16.7292 45.2308 16.7292 44.7883C16.7292 43.7703 16.5964 43.0622 16.2866 42.6639C15.9768 42.2656 15.4457 42.0443 14.6491 42.0443C14.1623 42.0443 13.6312 42.1328 13.0558 42.2656C12.4805 42.3984 11.9937 42.6197 11.5953 42.8409L10.9315 41.3805ZM16.5964 47.7535C16.4194 47.7535 16.2423 47.7092 16.0653 47.7092C15.8883 47.7092 15.7112 47.7092 15.5342 47.7092C15.1359 47.7092 14.6933 47.7535 14.295 47.7977C13.8967 47.8863 13.5427 47.9748 13.2329 48.1518C12.9231 48.3288 12.6575 48.5501 12.4805 48.8599C12.3035 49.1697 12.2149 49.5238 12.2149 50.0106C12.2149 50.7187 12.392 51.2498 12.746 51.6481C13.1001 52.0464 13.5427 52.2235 14.0737 52.2235C14.8261 52.2235 15.3572 52.0464 15.7555 51.6924C16.1538 51.3383 16.4194 50.94 16.5964 50.5417V47.7535Z" fill="#BABABA"/>
<path d="M28.9442 53.1086C28.5016 53.4626 28.0148 53.6839 27.4394 53.8609C26.8641 54.038 26.2887 54.0822 25.6691 54.0822C24.8283 54.0822 24.1201 53.9052 23.5448 53.5954C22.9695 53.2856 22.4826 52.7988 22.1286 52.1792C21.7745 51.5596 21.509 50.8514 21.3319 49.9663C21.1549 49.1254 21.0664 48.1518 21.0664 47.1338C21.0664 44.8767 21.4647 43.1507 22.2613 42C23.058 40.8051 24.2087 40.2297 25.7134 40.2297C26.4215 40.2297 26.9969 40.274 27.4837 40.4068C27.9705 40.5395 28.4131 40.6723 28.7671 40.8936L28.2361 42.5754C27.5279 42.177 26.7756 41.9558 25.9347 41.9558C25.0053 41.9558 24.2529 42.3541 23.7661 43.195C23.2793 44.0358 23.058 45.3636 23.058 47.1338C23.058 47.842 23.1022 48.5501 23.235 49.1697C23.3235 49.7893 23.5005 50.3646 23.7661 50.8072C24.0316 51.294 24.3414 51.6481 24.6955 51.9136C25.0938 52.1792 25.5806 52.3119 26.156 52.3119C26.5985 52.3119 27.0411 52.2234 27.4394 52.0906C27.8377 51.9136 28.1475 51.7366 28.4131 51.5153L28.9442 53.1086Z" fill="#BABABA"/>
<path d="M37.8841 53.1086C37.4415 53.4626 36.9547 53.6839 36.3794 53.8609C35.804 54.038 35.2287 54.0822 34.6091 54.0822C33.7682 54.0822 33.0601 53.9052 32.4847 53.5954C31.9094 53.2856 31.4226 52.7988 31.0685 52.1792C30.7145 51.5596 30.4489 50.8514 30.2719 49.9663C30.0949 49.1254 30.0063 48.1518 30.0063 47.1338C30.0063 44.8767 30.4047 43.1507 31.2013 42C31.9979 40.8051 33.1486 40.2297 34.6533 40.2297C35.3615 40.2297 35.9368 40.274 36.4236 40.4068C36.9105 40.5395 37.353 40.6723 37.7071 40.8936L37.176 42.5754C36.4679 42.177 35.7155 41.9558 34.8746 41.9558C33.9452 41.9558 33.1929 42.3541 32.706 43.195C32.2192 44.0358 31.9979 45.3636 31.9979 47.1338C31.9979 47.842 32.0422 48.5501 32.1749 49.1697C32.2635 49.7893 32.4405 50.3646 32.706 50.8072C32.9716 51.294 33.2814 51.6481 33.6354 51.9136C34.0337 52.1792 34.5206 52.3119 35.0959 52.3119C35.5385 52.3119 35.9811 52.2234 36.3794 52.0906C36.7777 51.9136 37.0875 51.7366 37.353 51.5153L37.8841 53.1086Z" fill="#BABABA"/>
<path d="M38.9462 47.178C38.9462 44.7882 39.3445 43.0621 40.1854 41.9557C41.0263 40.8493 42.177 40.2739 43.6817 40.2739C45.3193 40.2739 46.5142 40.8493 47.2666 42C48.0189 43.1506 48.4173 44.8767 48.4173 47.2223C48.4173 49.6122 48.0189 51.3825 47.1781 52.4889C46.3372 53.5953 45.1865 54.1707 43.6817 54.1707C42.0442 54.1707 40.8493 53.5953 40.0969 52.4446C39.3445 51.2497 38.9462 49.5237 38.9462 47.178ZM40.9378 47.178C40.9378 47.9747 40.9821 48.6385 41.0706 49.3024C41.1591 49.922 41.3361 50.4973 41.5574 50.9399C41.7787 51.3825 42.0442 51.7365 42.3983 52.0021C42.7523 52.2676 43.1507 52.4004 43.6817 52.4004C44.6111 52.4004 45.275 52.0021 45.7618 51.1612C46.2044 50.3645 46.4699 49.0368 46.4699 47.178C46.4699 46.4257 46.4257 45.7176 46.3372 45.098C46.2487 44.4341 46.0716 43.903 45.8503 43.4604C45.6291 43.0179 45.3635 42.6638 45.0095 42.3983C44.6554 42.1327 44.2128 42 43.726 42C42.8409 42 42.1327 42.3983 41.6902 43.2392C41.1591 44.0358 40.9378 45.3635 40.9378 47.178Z" fill="#BABABA"/>
<path d="M50.6302 45.3193H55.8525V47.1339H50.6302V45.3193Z" fill="#BABABA"/>
<path d="M58.7734 35.2729H67.0052V37.0875H60.7649V43.372H66.5184V45.1865H60.7649V51.9579H67.138V53.7724H58.7734V35.2729Z" fill="#BABABA"/>
<path d="M72.6702 47.0011L69.1739 40.5396H71.431L73.3783 44.3014L73.9094 45.7619L74.4847 44.3014L76.4763 40.5396H78.5564L75.0601 46.8683L78.7777 53.7282H76.6091L74.3962 49.568L73.8209 47.9747L73.2013 49.568L70.9884 53.7282H68.9083L72.6702 47.0011Z" fill="#BABABA"/>
<path d="M80.8577 40.5837H82.1854L82.4952 42H82.5837C83.2476 40.8493 84.2655 40.2739 85.6374 40.2739C87.0094 40.2739 88.0716 40.805 88.7797 41.8229C89.4878 42.8408 89.8419 44.5669 89.8419 46.9125C89.8419 48.0189 89.7091 49.0368 89.4878 49.922C89.2665 50.8071 88.9125 51.5595 88.5141 52.1791C88.0716 52.7987 87.5847 53.2855 86.9651 53.5953C86.3455 53.9051 85.6817 54.0821 84.9293 54.0821C84.3982 54.0821 83.9999 54.0379 83.7344 53.9936C83.4246 53.9494 83.1148 53.8166 82.7607 53.5953V59.0389H80.8577V40.5837ZM82.7607 51.6923C83.0263 51.9135 83.2918 52.0906 83.6016 52.1791C83.9114 52.3119 84.3097 52.3561 84.8408 52.3561C85.7702 52.3561 86.5226 51.8693 87.0537 50.9399C87.5847 50.0105 87.8503 48.6385 87.8503 46.8682C87.8503 46.1159 87.806 45.452 87.7175 44.8767C87.629 44.2571 87.452 43.7702 87.2749 43.3277C87.0537 42.8851 86.7881 42.5753 86.4783 42.3098C86.1685 42.0885 85.7702 41.9557 85.2834 41.9557C83.9999 41.9557 83.159 42.7523 82.805 44.3013V51.6923H82.7607Z" fill="#BABABA"/>
<path d="M92.3646 40.5838H93.6923L94.0464 42.0001H94.1349C94.4005 41.469 94.7102 41.0707 95.1086 40.8051C95.5069 40.4953 95.9937 40.3625 96.569 40.3625C96.9674 40.3625 97.4099 40.4511 97.941 40.5838L97.587 42.5311C97.1444 42.3541 96.7018 42.3099 96.392 42.3099C95.8167 42.3099 95.3741 42.4869 95.0201 42.7967C94.666 43.1065 94.4447 43.5491 94.3119 44.1244V53.861H92.4089V40.5838H92.3646Z" fill="#BABABA"/>
<path d="M107.5 52.8872C107.058 53.2855 106.527 53.5953 105.907 53.7723C105.243 53.9936 104.58 54.0821 103.827 54.0821C102.986 54.0821 102.278 53.9051 101.659 53.5953C101.039 53.2855 100.552 52.7987 100.154 52.1791C99.7555 51.5595 99.4457 50.8514 99.2687 50.0105C99.0916 49.1696 99.0031 48.1959 99.0031 47.178C99.0031 44.9209 99.4014 43.1949 100.242 42.0442C101.083 40.8493 102.234 40.2739 103.739 40.2739C104.225 40.2739 104.712 40.3182 105.199 40.451C105.686 40.5837 106.129 40.805 106.527 41.2033C106.925 41.5574 107.235 42.0885 107.456 42.7523C107.678 43.4162 107.81 44.3013 107.81 45.3635C107.81 45.6733 107.81 45.9831 107.766 46.3371C107.722 46.6912 107.722 47.0453 107.678 47.3993H100.95C100.95 48.1517 100.995 48.8598 101.127 49.4794C101.26 50.099 101.437 50.6301 101.703 51.0727C101.968 51.5152 102.322 51.825 102.721 52.0906C103.119 52.3119 103.65 52.4446 104.27 52.4446C104.757 52.4446 105.199 52.3561 105.686 52.1791C106.173 52.0021 106.527 51.7808 106.748 51.5595L107.5 52.8872ZM105.996 45.8061C106.04 44.4784 105.863 43.5047 105.42 42.8851C105.022 42.2655 104.447 41.9557 103.739 41.9557C102.942 41.9557 102.278 42.2655 101.791 42.8851C101.304 43.5047 101.039 44.4784 100.95 45.8061H105.996Z" fill="#BABABA"/>
<path d="M110.289 51.6038C110.643 51.8251 111.041 52.0021 111.528 52.1349C112.015 52.2677 112.502 52.3562 113.033 52.3562C113.608 52.3562 114.095 52.2234 114.493 51.9136C114.891 51.6038 115.113 51.1612 115.113 50.4974C115.113 49.9663 114.98 49.4795 114.759 49.1254C114.493 48.7714 114.183 48.4616 113.829 48.1518C113.431 47.8862 113.033 47.6207 112.59 47.3551C112.147 47.1338 111.749 46.824 111.351 46.5142C110.953 46.1602 110.643 45.8061 110.421 45.3193C110.156 44.8767 110.067 44.3014 110.067 43.5933C110.067 42.4868 110.377 41.6017 110.997 41.0706C111.616 40.4953 112.457 40.2297 113.564 40.2297C114.272 40.2297 114.891 40.274 115.423 40.4068C115.954 40.5395 116.396 40.7166 116.794 40.9378L116.308 42.5311C115.954 42.3541 115.6 42.2213 115.157 42.0885C114.714 41.9558 114.272 41.9115 113.829 41.9115C113.21 41.9115 112.723 42.0443 112.457 42.3098C112.148 42.5754 112.015 42.9737 112.015 43.549C112.015 43.9916 112.147 44.3456 112.369 44.6554C112.634 44.9652 112.944 45.2308 113.298 45.4963C113.697 45.7619 114.095 46.0274 114.537 46.293C114.98 46.5585 115.378 46.8683 115.777 47.2224C116.175 47.5764 116.485 48.019 116.706 48.5058C116.972 48.9926 117.06 49.6565 117.06 50.4089C117.06 50.8957 116.972 51.3825 116.839 51.8251C116.662 52.2677 116.44 52.666 116.131 52.9758C115.821 53.2856 115.378 53.5511 114.936 53.7724C114.449 53.9494 113.874 54.0822 113.254 54.0822C112.457 54.0822 111.793 53.9937 111.262 53.8609C110.687 53.7282 110.244 53.5069 109.846 53.2856L110.289 51.6038Z" fill="#BABABA"/>
<path d="M119.229 51.6038C119.583 51.8251 119.981 52.0021 120.468 52.1349C120.955 52.2677 121.441 52.3562 121.973 52.3562C122.548 52.3562 123.035 52.2234 123.433 51.9136C123.831 51.6038 124.053 51.1612 124.053 50.4974C124.053 49.9663 123.92 49.4795 123.699 49.1254C123.433 48.7714 123.123 48.4616 122.769 48.1518C122.371 47.8862 121.973 47.6207 121.53 47.3551C121.087 47.1338 120.689 46.824 120.291 46.5142C119.892 46.1602 119.583 45.8061 119.361 45.3193C119.096 44.8767 119.007 44.3014 119.007 43.5933C119.007 42.4868 119.317 41.6017 119.937 41.0706C120.556 40.4953 121.397 40.2297 122.504 40.2297C123.212 40.2297 123.831 40.274 124.362 40.4068C124.893 40.5395 125.336 40.7166 125.734 40.9378L125.248 42.5311C124.893 42.3541 124.539 42.2213 124.097 42.0885C123.654 41.9558 123.212 41.9115 122.769 41.9115C122.15 41.9115 121.663 42.0443 121.397 42.3098C121.087 42.5754 120.955 42.9737 120.955 43.549C120.955 43.9916 121.087 44.3456 121.309 44.6554C121.574 44.9652 121.884 45.2308 122.238 45.4963C122.636 45.7619 123.035 46.0274 123.477 46.293C123.92 46.5585 124.318 46.8683 124.716 47.2224C125.115 47.5764 125.425 48.019 125.646 48.5058C125.911 48.9926 126 49.6565 126 50.4089C126 50.8957 125.911 51.3825 125.779 51.8251C125.602 52.2677 125.38 52.666 125.071 52.9758C124.761 53.2856 124.318 53.5511 123.876 53.7724C123.389 53.9494 122.813 54.0822 122.194 54.0822C121.397 54.0822 120.733 53.9937 120.202 53.8609C119.627 53.7282 119.184 53.5069 118.786 53.2856L119.229 51.6038Z" fill="#BABABA"/>
<defs>
<linearGradient id="paint0_linear_140_1601" x1="16.3283" y1="12.3496" x2="94.9117" y2="12.3496" gradientUnits="userSpaceOnUse">
<stop stop-color="#313E54"/>
<stop offset="1" stop-color="#5ED6D5"/>
</linearGradient>
<linearGradient id="paint1_linear_140_1601" x1="16.2807" y1="12.5235" x2="94.8641" y2="12.5235" gradientUnits="userSpaceOnUse">
<stop stop-color="#313E54"/>
<stop offset="1" stop-color="#5ED6D5"/>
</linearGradient>
<linearGradient id="paint2_linear_140_1601" x1="16.3283" y1="12.5236" x2="94.9117" y2="12.5236" gradientUnits="userSpaceOnUse">
<stop stop-color="#313E54"/>
<stop offset="1" stop-color="#5ED6D5"/>
</linearGradient>
<linearGradient id="paint3_linear_140_1601" x1="16.3283" y1="16.0024" x2="94.9118" y2="16.0024" gradientUnits="userSpaceOnUse">
<stop stop-color="#313E54"/>
<stop offset="1" stop-color="#5ED6D5"/>
</linearGradient>
</defs>
</svg>
